<?xml version="1.0" encoding="iso-8859-1"?>
<!-- Generator: Adobe Illustrator 23.0.0, SVG Export Plug-In . SVG Version: 6.00 Build 0)  -->
<svg version="1.1" id="&#x56FE;&#x5C42;_1" xmlns="http://www.w3.org/2000/svg" xmlns:xlink="http://www.w3.org/1999/xlink" x="0px"
	 y="0px" viewBox="0 0 1040 720" style="enable-background:new 0 0 1040 720;" xml:space="preserve">
<g>
	<path style="fill:#F0F0FF;" d="M2.891,490.28c0,182.216,251.904,225.734,627.869,225.637
		c255.587,0.097,406.399-130.943,406.302-334.967c-0.111-233.004-166.514-345.822-317.715-368.89
		c-72.502-11.061-466.555-34.071-449.53,121.348C281.836,243.126,2.891,226.358,2.891,490.28z"/>
	<path style="fill:#D7D7FF;" d="M39.721,468.279c0,182.216,225.541,235.717,601.506,235.621
		c255.587,0.097,363.269-126.194,363.172-330.218c-0.111-233.004-230.193-349.409-349.505-349.505
		c-75.562-0.061-374.187-29.322-357.162,126.097C309.75,259.991,39.721,204.357,39.721,468.279z"/>
	<g>
		<defs>
			<path id="SVGID_1_" d="M59.203,468.279c0,182.216,194.331,228.254,570.297,228.157
				c255.587,0.097,349.602-118.731,349.505-322.755C978.895,140.678,748.812,24.273,629.5,24.176
				c-75.562-0.061-254.154,8.478-357.162,126.097C187.514,247.129,59.203,291.05,59.203,468.279z"/>
		</defs>
		<clipPath id="SVGID_2_">
			<use xlink:href="#SVGID_1_"  style="overflow:visible;"/>
		</clipPath>
		<linearGradient id="SVGID_3_" gradientUnits="userSpaceOnUse" x1="59.203" y1="360.3061" x2="979.0053" y2="360.3061">
			<stop  offset="0" style="stop-color:#251464"/>
			<stop  offset="1" style="stop-color:#171043"/>
		</linearGradient>
		<path style="clip-path:url(#SVGID_2_);fill:url(#SVGID_3_);" d="M59.203,468.279c0,182.216,194.331,228.254,570.297,228.157
			c255.587,0.097,349.602-118.731,349.505-322.755C978.895,140.678,748.812,24.273,629.5,24.176
			c-75.562-0.061-254.154,8.478-357.162,126.097C187.514,247.129,59.203,291.05,59.203,468.279z"/>
		<radialGradient id="SVGID_4_" cx="918.0405" cy="6.2453" r="290.654" gradientUnits="userSpaceOnUse">
			<stop  offset="0" style="stop-color:#532174"/>
			<stop  offset="1" style="stop-color:#532174;stop-opacity:0"/>
		</radialGradient>
		<circle style="clip-path:url(#SVGID_2_);fill:url(#SVGID_4_);" cx="918.04" cy="6.245" r="287.281"/>
		
			<radialGradient id="SVGID_5_" cx="-1790.4995" cy="1708.1484" r="225.7373" gradientTransform="matrix(1.6835 -0.7921 0.4258 0.9048 3166.6284 -2244.0107)" gradientUnits="userSpaceOnUse">
			<stop  offset="0" style="stop-color:#1D1B76"/>
			<stop  offset="1" style="stop-color:#1D1B76;stop-opacity:0"/>
		</radialGradient>
		<path style="clip-path:url(#SVGID_2_);fill:url(#SVGID_5_);" d="M1255.185,543.172c52.463,111.498-73.177,281.015-280.626,378.625
			s-418.149,86.353-470.612-25.146s73.177-281.015,280.626-378.625S1202.722,431.674,1255.185,543.172z"/>
		
			<radialGradient id="SVGID_6_" cx="-1863.4678" cy="436.0876" r="121.4041" gradientTransform="matrix(1.6835 -0.7921 0.5053 1.0739 3459.0728 -1622.4895)" gradientUnits="userSpaceOnUse">
			<stop  offset="0" style="stop-color:#191B7E;stop-opacity:0.6"/>
			<stop  offset="1" style="stop-color:#191B7E;stop-opacity:0"/>
		</radialGradient>
		<path style="clip-path:url(#SVGID_2_);fill:url(#SVGID_6_);" d="M744.284,226.894c33.487,71.169-29.81,171.419-141.379,223.915
			S373.747,488.168,340.26,417s29.81-171.419,141.379-223.915S710.797,155.726,744.284,226.894z"/>
		
			<radialGradient id="SVGID_7_" cx="-2053.5085" cy="611.3719" r="121.4041" gradientTransform="matrix(1.6835 -0.7921 0.5053 1.0739 3459.0728 -1622.4895)" gradientUnits="userSpaceOnUse">
			<stop  offset="0" style="stop-color:#191B7E;stop-opacity:0.6"/>
			<stop  offset="1" style="stop-color:#191B7E;stop-opacity:0"/>
		</radialGradient>
		<path style="clip-path:url(#SVGID_2_);fill:url(#SVGID_7_);" d="M512.921,565.67c33.487,71.169-29.81,171.419-141.379,223.915
			c-111.568,52.496-229.159,37.359-262.646-33.809s29.81-171.419,141.379-223.915C361.844,479.364,479.434,494.501,512.921,565.67z"
			/>
		<g id="&#x83F1;&#x661F;&#x7EC4;" style="clip-path:url(#SVGID_2_);">
			<radialGradient id="SVGID_8_" cx="832.0695" cy="569.2728" r="19.1" gradientUnits="userSpaceOnUse">
				<stop  offset="0.1955" style="stop-color:#FFFFFF"/>
				<stop  offset="0.8827" style="stop-color:#FFFFFF;stop-opacity:0"/>
			</radialGradient>
			<path style="fill:url(#SVGID_8_);" d="M850.679,570.048l-1.606-1.606c0,0-9.962-1.045-12.078-3.161
				c-2.115-2.115-3.571-14.233-3.571-14.233l-1.355-1.355l-1.386,1.386c0,0-0.674,11.724-3.375,14.037
				c-2.701,2.313-12.103,3.186-12.103,3.186l-1.745,1.745l1.943,1.943c0,0,8.883-0.228,11.951,3.034
				c3.068,3.262,3.584,12.695,3.584,12.695l1.131,1.131l1.252-1.252c0,0,0.101-9.018,3.35-12.461
				c3.249-3.443,12.488-3.571,12.488-3.571L850.679,570.048z"/>
			<radialGradient id="SVGID_9_" cx="526.1795" cy="156.3795" r="19.1" gradientUnits="userSpaceOnUse">
				<stop  offset="0.1955" style="stop-color:#FFFFFF"/>
				<stop  offset="0.8827" style="stop-color:#FFFFFF;stop-opacity:0"/>
			</radialGradient>
			<path style="fill:url(#SVGID_9_);" d="M544.789,157.155l-1.606-0.678c0,0-9.962-1.972-12.077-4.088
				c-2.115-2.115-4.054-14.233-4.054-14.233l-0.872-1.355l-0.872,1.386c0,0-1.188,11.724-3.89,14.037
				c-2.701,2.314-12.103,4.252-12.103,4.252l-1.745,0.678l1.311,0.434c0,0,9.515,1.281,12.583,4.543
				c3.068,3.262,4.425,12.695,4.425,12.695l0.291,1.131l0.485-1.252c0,0,0.868-9.018,4.117-12.461s12.488-4.412,12.488-4.412
				L544.789,157.155z"/>
			<radialGradient id="SVGID_10_" cx="912.9036" cy="353.5215" r="9.6446" gradientUnits="userSpaceOnUse">
				<stop  offset="0.1955" style="stop-color:#FFFFFF"/>
				<stop  offset="0.8827" style="stop-color:#FFFFFF;stop-opacity:0"/>
			</radialGradient>
			<path style="fill:url(#SVGID_10_);" d="M922.3,353.913l-0.811-0.811c0,0-5.03-0.528-6.099-1.596
				c-1.068-1.068-1.803-7.187-1.803-7.187l-0.684-0.684l-0.7,0.7c0,0-0.341,5.92-1.704,7.088s-6.111,1.609-6.111,1.609l-0.881,0.881
				l0.981,0.981c0,0,4.486-0.115,6.035,1.532c1.549,1.647,1.81,6.41,1.81,6.41l0.571,0.571l0.632-0.632c0,0,0.051-4.554,1.692-6.292
				c1.641-1.738,6.306-1.803,6.306-1.803L922.3,353.913z"/>
			<radialGradient id="SVGID_11_" cx="151.474" cy="569.2728" r="9.6446" gradientUnits="userSpaceOnUse">
				<stop  offset="0.1955" style="stop-color:#FFFFFF"/>
				<stop  offset="0.8827" style="stop-color:#FFFFFF;stop-opacity:0"/>
			</radialGradient>
			<path style="fill:url(#SVGID_11_);" d="M160.871,569.664l-0.811-0.811c0,0-5.03-0.528-6.099-1.596
				c-1.068-1.068-1.803-7.187-1.803-7.187l-0.684-0.684l-0.7,0.7c0,0-0.34,5.92-1.704,7.088c-1.364,1.168-6.111,1.609-6.111,1.609
				l-0.881,0.881l0.981,0.981c0,0,4.486-0.115,6.035,1.532c1.549,1.647,1.81,6.41,1.81,6.41l0.571,0.571l0.632-0.632
				c0,0,0.051-4.554,1.692-6.292c1.641-1.739,6.306-1.803,6.306-1.803L160.871,569.664z"/>
			<radialGradient id="SVGID_12_" cx="509.7025" cy="116.0594" r="9.6446" gradientUnits="userSpaceOnUse">
				<stop  offset="0.1955" style="stop-color:#FFFFFF"/>
				<stop  offset="0.8827" style="stop-color:#FFFFFF;stop-opacity:0"/>
			</radialGradient>
			<path style="fill:url(#SVGID_12_);" d="M519.099,116.451l-0.811-0.811c0,0-5.03-0.528-6.099-1.596
				c-1.068-1.068-1.803-7.187-1.803-7.187l-0.684-0.684l-0.7,0.7c0,0-0.34,5.92-1.704,7.088s-6.111,1.609-6.111,1.609l-0.881,0.881
				l0.981,0.981c0,0,4.486-0.115,6.035,1.532s1.81,6.41,1.81,6.41l0.571,0.571l0.632-0.632c0,0,0.051-4.554,1.692-6.292
				c1.641-1.738,6.306-1.803,6.306-1.803L519.099,116.451z"/>
			<radialGradient id="SVGID_13_" cx="685.3276" cy="166.2657" r="9.6446" gradientUnits="userSpaceOnUse">
				<stop  offset="0.1955" style="stop-color:#FFFFFF"/>
				<stop  offset="0.8827" style="stop-color:#FFFFFF;stop-opacity:0"/>
			</radialGradient>
			<path style="fill:url(#SVGID_13_);" d="M694.724,166.657l-0.811-0.811c0,0-5.03-0.528-6.099-1.596
				c-1.068-1.068-1.803-7.187-1.803-7.187l-0.684-0.684l-0.7,0.7c0,0-0.34,5.92-1.704,7.088c-1.364,1.168-6.111,1.609-6.111,1.609
				l-0.881,0.881l0.981,0.981c0,0,4.486-0.115,6.035,1.532c1.549,1.647,1.81,6.41,1.81,6.41l0.571,0.571l0.632-0.632
				c0,0,0.051-4.554,1.692-6.292c1.641-1.738,6.306-1.803,6.306-1.803L694.724,166.657z"/>
			<radialGradient id="SVGID_14_" cx="445.7332" cy="604.3591" r="9.6446" gradientUnits="userSpaceOnUse">
				<stop  offset="0.1955" style="stop-color:#FFFFFF"/>
				<stop  offset="0.8827" style="stop-color:#FFFFFF;stop-opacity:0"/>
			</radialGradient>
			<path style="fill:url(#SVGID_14_);" d="M455.13,604.751l-0.811-0.811c0,0-5.03-0.528-6.099-1.596
				c-1.068-1.068-1.803-7.187-1.803-7.187l-0.684-0.684l-0.7,0.7c0,0-0.34,5.92-1.704,7.088s-6.111,1.609-6.111,1.609l-0.881,0.881
				l0.981,0.981c0,0,4.486-0.115,6.035,1.532c1.549,1.647,1.81,6.41,1.81,6.41l0.571,0.571l0.632-0.632c0,0,0.051-4.554,1.692-6.292
				c1.641-1.739,6.306-1.803,6.306-1.803L455.13,604.751z"/>
		</g>
		<g id="&#x6D41;&#x661F;&#x7EC4;" style="clip-path:url(#SVGID_2_);">
			<g>
				
					<linearGradient id="SVGID_15_" gradientUnits="userSpaceOnUse" x1="552.9512" y1="-4230.4956" x2="554.9935" y2="-4364.2544" gradientTransform="matrix(0.7071 0.7071 -0.7071 0.7071 -2506.5273 3066.292)">
					<stop  offset="0" style="stop-color:#30E3E7"/>
					<stop  offset="0.4721" style="stop-color:#32E4E5;stop-opacity:0.3"/>
					<stop  offset="1" style="stop-color:#35E5E3;stop-opacity:0"/>
				</linearGradient>
				<path style="opacity:0.3;fill:url(#SVGID_15_);" d="M889.031,462.677c-5.145,5.145-11.489,7.144-14.168,4.465
					c-2.679-2.679-0.68-9.023,4.465-14.168s91.016-81.975,91.016-81.975l0.662,0.662C971.006,371.66,893.75,457.958,889.031,462.677
					z"/>
				
					<linearGradient id="SVGID_16_" gradientUnits="userSpaceOnUse" x1="553.1768" y1="-4233.7207" x2="554.1924" y2="-4300.2437" gradientTransform="matrix(0.7071 0.7071 -0.7071 0.7071 -2506.5273 3066.292)">
					<stop  offset="0" style="stop-color:#30E3E7"/>
					<stop  offset="0.4721" style="stop-color:#32E4E5;stop-opacity:0.3"/>
					<stop  offset="1" style="stop-color:#35E5E3;stop-opacity:0"/>
				</linearGradient>
				<path style="opacity:0.6;fill:url(#SVGID_16_);" d="M884.861,462.163c-2.559,2.559-5.714,3.553-7.046,2.221
					c-1.333-1.333-0.338-4.487,2.221-7.046s45.266-40.769,45.266-40.769l0.329,0.329
					C925.63,416.898,887.208,459.817,884.861,462.163z"/>
				
					<linearGradient id="SVGID_17_" gradientUnits="userSpaceOnUse" x1="553.197" y1="-4523.9663" x2="553.9766" y2="-4575.0205" gradientTransform="matrix(0.7071 0.7071 -0.4371 0.4371 -1490.7374 2050.502)">
					<stop  offset="0" style="stop-color:#30E3E7"/>
					<stop  offset="0.4721" style="stop-color:#32E4E5;stop-opacity:0.3"/>
					<stop  offset="1" style="stop-color:#35E5E3;stop-opacity:0"/>
				</linearGradient>
				<path style="fill:url(#SVGID_17_);" d="M881.8,464.102c-1.214,1.214-3.027,1.369-4.05,0.347s-0.868-2.836,0.346-4.05
					c1.214-1.214,22.135-18.684,22.135-18.684l0.253,0.253C900.484,441.967,882.914,462.989,881.8,464.102z"/>
			</g>
			<g>
				
					<linearGradient id="SVGID_18_" gradientUnits="userSpaceOnUse" x1="176.1451" y1="-3778.575" x2="178.1873" y2="-3912.3337" gradientTransform="matrix(0.7071 0.7071 -0.7071 0.7071 -2506.5273 3066.292)">
					<stop  offset="0" style="stop-color:#30E3E7"/>
					<stop  offset="0.4721" style="stop-color:#32E4E5;stop-opacity:0.3"/>
					<stop  offset="1" style="stop-color:#35E5E3;stop-opacity:0"/>
				</linearGradient>
				<path style="opacity:0.3;fill:url(#SVGID_18_);" d="M303.033,515.791c-5.145,5.145-11.489,7.144-14.168,4.465
					c-2.679-2.679-0.68-9.023,4.465-14.168c5.145-5.145,91.016-81.975,91.016-81.975l0.662,0.662
					C385.008,424.774,307.751,511.072,303.033,515.791z"/>
				
					<linearGradient id="SVGID_19_" gradientUnits="userSpaceOnUse" x1="176.3706" y1="-3781.8" x2="177.3863" y2="-3848.3232" gradientTransform="matrix(0.7071 0.7071 -0.7071 0.7071 -2506.5273 3066.292)">
					<stop  offset="0" style="stop-color:#30E3E7"/>
					<stop  offset="0.4721" style="stop-color:#32E4E5;stop-opacity:0.3"/>
					<stop  offset="1" style="stop-color:#35E5E3;stop-opacity:0"/>
				</linearGradient>
				<path style="opacity:0.6;fill:url(#SVGID_19_);" d="M298.862,515.277c-2.559,2.559-5.714,3.553-7.046,2.221
					s-0.338-4.487,2.221-7.046c2.559-2.559,45.266-40.769,45.266-40.769l0.329,0.329
					C339.632,470.012,301.209,512.931,298.862,515.277z"/>
				
					<linearGradient id="SVGID_20_" gradientUnits="userSpaceOnUse" x1="176.3909" y1="-3792.926" x2="177.1705" y2="-3843.9802" gradientTransform="matrix(0.7071 0.7071 -0.4371 0.4371 -1490.7374 2050.502)">
					<stop  offset="0" style="stop-color:#30E3E7"/>
					<stop  offset="0.4721" style="stop-color:#32E4E5;stop-opacity:0.3"/>
					<stop  offset="1" style="stop-color:#35E5E3;stop-opacity:0"/>
				</linearGradient>
				<path style="fill:url(#SVGID_20_);" d="M295.802,517.216c-1.214,1.214-3.027,1.369-4.05,0.347s-0.868-2.836,0.347-4.05
					c1.214-1.214,22.135-18.684,22.135-18.684l0.253,0.253C314.486,495.081,296.915,516.103,295.802,517.216z"/>
			</g>
			
				<linearGradient id="SVGID_21_" gradientUnits="userSpaceOnUse" x1="71.1492" y1="-4308.2144" x2="73.1915" y2="-4441.9731" gradientTransform="matrix(0.7071 0.7071 -0.7071 0.7071 -2506.5273 3066.292)">
				<stop  offset="0" style="stop-color:#30E3E7"/>
				<stop  offset="0.4721" style="stop-color:#32E4E5;stop-opacity:0.3"/>
				<stop  offset="1" style="stop-color:#35E5E3;stop-opacity:0"/>
			</linearGradient>
			<path style="opacity:0.3;fill:url(#SVGID_21_);" d="M603.301,67.036c-5.145,5.145-11.489,7.144-14.168,4.465
				c-2.679-2.679-0.68-9.023,4.465-14.168s91.016-81.975,91.016-81.975l0.662,0.662C685.276-23.981,608.02,62.317,603.301,67.036z"
				/>
			
				<linearGradient id="SVGID_22_" gradientUnits="userSpaceOnUse" x1="398.3359" y1="-4024.8904" x2="400.3782" y2="-4158.6489" gradientTransform="matrix(0.7071 0.7071 -0.7071 0.7071 -2506.5273 3066.292)">
				<stop  offset="0" style="stop-color:#30E3E7"/>
				<stop  offset="0.4721" style="stop-color:#32E4E5;stop-opacity:0.3"/>
				<stop  offset="1" style="stop-color:#35E5E3;stop-opacity:0"/>
			</linearGradient>
			<path style="opacity:0.3;fill:url(#SVGID_22_);" d="M634.317,498.732c-5.145,5.145-11.489,7.144-14.168,4.465
				c-2.679-2.679-0.68-9.023,4.465-14.168c5.145-5.145,91.016-81.975,91.016-81.975l0.662,0.662
				C716.292,407.716,639.035,494.014,634.317,498.732z"/>
		</g>
		<g style="clip-path:url(#SVGID_2_);">
			<path style="fill:#2E2E6C;" d="M246.168,71.572c0,0,5.428,151.2,92.853,140.151c87.425-11.049,189.194,23.455,220.21,76.376
				c31.016,52.92,142.09,50.982,165.739-23.649s191.133-207.416,293.096-109.136s-27.332,83.742-27.332,83.742
				s-156.434,34.311-178.339,152.751s-243.859,94.597-271.191,27.332c-27.332-67.265-227.77-1.745-262.275,45.554
				S47.669,513.736,27.703,410.028S246.168,71.572,246.168,71.572z"/>
			<path style="opacity:0.2;fill:#FFFFFF;" d="M178.434,495.964c-2.239,0-4.485-0.029-6.743-0.086
				c-16.522-0.418-32.616-2.355-47.836-5.759c-12.046-2.694-23.343-6.282-33.576-10.663c-10.891-4.663-20.62-10.248-28.916-16.599
				c-18.435-14.113-29.824-31.875-33.851-52.793c-2.386-12.395-1.155-27.336,3.658-44.408c4.373-15.506,11.799-33.121,22.073-52.356
				c17.298-32.384,42.886-69.903,76.053-111.513c56.466-70.84,116.139-129.768,116.736-130.355l0.314-0.309l0.016,0.44
				c0.008,0.227,0.883,22.971,6.885,49.788c5.535,24.735,16.688,58.092,38.382,76.536c11.116,9.45,24.039,14.213,38.51,14.213
				c2.892,0,5.844-0.19,8.857-0.571c21.388-2.703,43.921-2.76,66.975-0.17c22.278,2.503,43.935,7.341,64.371,14.378
				c20.52,7.067,38.621,15.944,53.8,26.387c15.822,10.885,27.684,22.955,35.256,35.875c14.971,25.544,50.188,39.886,87.634,35.688
				c38.28-4.291,67.346-26.458,77.752-59.298c7.578-23.915,29.969-53.804,59.896-79.954c33.104-28.927,71.11-49.875,107.017-58.984
				c23.383-5.932,45.575-6.833,65.959-2.676c22.666,4.622,43.036,15.522,60.544,32.398c31.631,30.488,44.233,53.255,37.457,67.669
				c-2.423,5.154-7.356,9.222-14.663,12.091c-5.824,2.287-13.165,3.823-21.818,4.564c-14.371,1.232-27.682-0.165-28.432-0.246
				c-0.62,0.138-10.327,2.334-24.743,7.202c-13.686,4.621-34.534,12.664-56.137,24.736c-38.141,21.314-85.978,59.547-97.279,120.652
				c-2.328,12.59-7.036,24.07-13.993,34.123c-6.501,9.393-15.041,17.657-25.383,24.561c-18.774,12.533-43.759,20.692-72.254,23.596
				c-7.772,0.792-15.736,1.181-23.758,1.182c-26.038,0.001-52.747-4.1-75.974-11.857c-15.143-5.057-28.025-11.355-38.288-18.72
				c-10.812-7.758-18.184-16.342-21.911-25.514c-6.234-15.342-21.749-24.638-46.112-27.629
				c-31.436-3.859-77.842,3.64-124.136,20.059c-21.073,7.474-40.699,16.293-56.755,25.503
				c-16.599,9.522-28.679,19.087-34.935,27.662c-4.836,6.628-12.858,12.478-23.845,17.385c-10.56,4.717-23.269,8.315-37.775,10.695
				C205,494.933,191.898,495.964,178.434,495.964z M245.993,72.017c-4.738,4.697-62.053,61.839-116.396,130.016
				c-33.152,41.591-58.726,79.089-76.013,111.452c-21.593,40.426-30.237,72.896-25.692,96.506
				c10.2,52.98,64.555,72.707,96.047,79.75c29.666,6.635,63.731,7.642,93.462,2.764c14.473-2.375,27.15-5.964,37.68-10.667
				c10.924-4.88,18.894-10.687,23.689-17.26c6.287-8.618,18.409-18.221,35.055-27.77c16.076-9.222,35.723-18.05,56.818-25.532
				c21.773-7.722,44.225-13.682,64.929-17.235c22.843-3.92,42.822-4.876,59.384-2.843c11.685,1.434,21.486,4.38,29.129,8.754
				c8.239,4.715,14.058,11.146,17.295,19.113c7.272,17.897,28.567,33.528,59.963,44.012c30.334,10.13,66.625,14.014,99.57,10.658
				c62.265-6.344,102.828-36.219,111.288-81.964c5.003-27.051,17.503-51.924,37.152-73.928
				c15.715-17.598,36.012-33.41,60.327-46.996c21.63-12.086,42.502-20.137,56.203-24.763c14.846-5.013,24.708-7.196,24.806-7.217
				l0.031-0.007l0.032,0.004c0.135,0.015,13.712,1.508,28.394,0.248c8.615-0.739,15.918-2.266,21.707-4.54
				c7.21-2.832,12.072-6.833,14.451-11.894c6.698-14.246-5.877-36.864-37.376-67.224c-33.112-31.916-76.73-42.16-126.139-29.625
				c-35.848,9.095-73.797,30.013-106.857,58.901c-29.875,26.105-52.223,55.93-59.781,79.78c-2.805,8.853-6.954,17.002-12.331,24.22
				c-5.061,6.794-11.237,12.807-18.357,17.871c-13.28,9.445-29.668,15.488-47.392,17.475c-4.176,0.468-8.389,0.699-12.59,0.7
				c-13.505,0-26.902-2.39-38.707-6.988c-16.423-6.397-29.119-16.628-36.716-29.589c-14.913-25.445-46.466-47.496-88.847-62.091
				c-41.537-14.304-89.347-19.476-131.171-14.19c-3.03,0.383-6.003,0.574-8.911,0.574c-14.564,0-27.567-4.793-38.757-14.306
				c-9.62-8.178-17.993-19.927-24.886-34.919c-5.511-11.985-10.095-26.06-13.624-41.834
				C247.317,96.631,246.146,75.31,245.993,72.017z"/>
		</g>
		<g id="&#x70B9;&#x661F;" style="clip-path:url(#SVGID_2_);">
			<circle style="fill:#FFFFFF;" cx="754.046" cy="89.018" r="2.132"/>
			<circle style="fill:#FFFFFF;" cx="677.477" cy="623.841" r="2.132"/>
			<circle style="fill:#FFFFFF;" cx="404.541" cy="444.92" r="2.132"/>
			<circle style="fill:#FFFFFF;" cx="515.809" cy="461.785" r="1.551"/>
			<circle style="fill:#FFFFFF;" cx="894.391" cy="397.428" r="1.551"/>
			<circle style="fill:#FFFFFF;" cx="854.265" cy="410.803" r="1.551"/>
			<circle style="fill:#FFFFFF;" cx="933.161" cy="474.385" r="1.551"/>
			<circle style="fill:#FFFFFF;" cx="827.514" cy="505.982" r="1.551"/>
			<circle style="fill:#FFFFFF;" cx="896.717" cy="497.453" r="1.551"/>
			<circle style="fill:#FFFFFF;" cx="388.258" cy="140.581" r="1.551"/>
			<circle style="fill:#FFFFFF;" cx="507.279" cy="69.052" r="1.551"/>
			<circle style="fill:#FFFFFF;" cx="605.56" cy="117.513" r="1.551"/>
			<circle style="fill:#FFFFFF;" cx="706.36" cy="223.16" r="1.551"/>
			<circle style="fill:#FFFFFF;" cx="611.763" cy="300.892" r="1.551"/>
			<circle style="fill:#FFFFFF;" cx="341.153" cy="523.04" r="1.551"/>
			<circle style="fill:#FFFFFF;" cx="373.913" cy="623.841" r="1.551"/>
			<circle style="fill:#FFFFFF;" cx="457.655" cy="662.61" r="1.551"/>
			<circle style="fill:#FFFFFF;" cx="630.76" cy="679.087" r="1.551"/>
			<circle style="fill:#FFFFFF;" cx="717.797" cy="636.247" r="1.551"/>
			<circle style="fill:#FFFFFF;" cx="764.708" cy="582.164" r="1.551"/>
			<circle style="fill:#FFFFFF;" cx="673.212" cy="557.157" r="1.551"/>
			<circle style="fill:#FFFFFF;" cx="564.852" cy="591.274" r="1.551"/>
			<circle style="fill:#FFFFFF;" cx="557.486" cy="518.97" r="1.551"/>
		</g>
		<g style="opacity:0.3;clip-path:url(#SVGID_2_);">
			<g>
				<path style="fill:#FFFFFF;" d="M896.907,212.989c-27.356,0-57.222-7.824-85.198-23.976
					c-66.72-38.521-97.801-110.042-69.285-159.435C770.94-19.813,848.422-28.656,915.142,9.864
					c66.72,38.521,97.801,110.043,69.285,159.435C967.867,197.98,934.794,212.989,896.907,212.989z M829.905-12.131
					c-37.168,0-69.555,14.661-85.749,42.71c-27.965,48.437,2.788,118.733,68.553,156.702
					c65.768,37.97,142.021,29.453,169.985-18.982l0.866,0.5l-0.866-0.5c27.965-48.437-2.788-118.733-68.553-156.702
					C886.461-4.385,856.919-12.131,829.905-12.131z"/>
			</g>
			<g>
				<path style="fill:#FFFFFF;" d="M907.001,246.901c-35.548,0-74.361-10.169-110.722-31.162
					c-41.94-24.215-74.413-59.053-91.437-98.097c-17.069-39.148-16.575-77.844,1.389-108.959S757.46-42.208,799.898-47
					c42.325-4.778,88.732,5.925,130.673,30.139c86.677,50.042,127.072,142.928,90.049,207.056
					C999.127,227.422,956.192,246.901,907.001,246.901z M819.963-46.113c-6.692,0-13.313,0.364-19.841,1.102
					c-41.79,4.719-74.52,24.143-92.158,54.695c-17.64,30.551-18.097,68.608-1.288,107.16c16.854,38.655,49.031,73.162,90.604,97.164
					c85.722,49.492,185.137,38.362,221.608-24.812l0.866,0.5l-0.866-0.5c36.473-63.174-3.595-154.833-89.316-204.324
					C894.474-35.392,856.236-46.113,819.963-46.113z"/>
			</g>
			<g>
				<path style="fill:#FFFFFF;" d="M916.929,280.26c-43.605,0-91.219-12.475-135.828-38.23
					C674.792,180.651,625.233,66.751,670.627-11.874c45.394-78.625,168.813-92.655,275.123-31.278
					c106.31,61.378,155.868,175.278,110.475,253.903C1029.878,256.383,977.241,280.26,916.929,280.26z M809.883-79.402
					c-59.596,0-111.542,23.527-137.523,68.529c-44.843,77.669,4.388,190.344,109.741,251.171
					c105.354,60.826,227.549,47.122,272.392-30.546l0,0c44.843-77.669-4.388-190.344-109.742-251.17
					C900.438-67.002,853.144-79.402,809.883-79.402z"/>
			</g>
		</g>
		<g style="clip-path:url(#SVGID_2_);">
			
				<radialGradient id="SVGID_23_" cx="-137.3566" cy="1334.569" r="225.7373" gradientTransform="matrix(0.9924 -0.1234 0.1234 0.9924 141.9945 -757.4224)" gradientUnits="userSpaceOnUse">
				<stop  offset="0" style="stop-color:#FFF17E"/>
				<stop  offset="0.9451" style="stop-color:#FFF17E;stop-opacity:0"/>
			</radialGradient>
			<circle style="fill:url(#SVGID_23_);" cx="170.373" cy="583.896" r="223.117"/>
			<linearGradient id="SVGID_24_" gradientUnits="userSpaceOnUse" x1="59.4432" y1="502.4075" x2="286.9871" y2="669.5603">
				<stop  offset="0.2031" style="stop-color:#FDF580"/>
				<stop  offset="1" style="stop-color:#F0731F"/>
			</linearGradient>
			<circle style="fill:url(#SVGID_24_);" cx="170.373" cy="583.896" r="141.17"/>
			<linearGradient id="SVGID_25_" gradientUnits="userSpaceOnUse" x1="-50.571" y1="591.4059" x2="384.3844" y2="591.4059">
				<stop  offset="0" style="stop-color:#F17723"/>
				<stop  offset="0.9451" style="stop-color:#F7C658"/>
			</linearGradient>
			<path style="opacity:0.4;fill:url(#SVGID_25_);" d="M301.677,531.956c1.233,3.123,1.436,3.354,2.451,6.592
				c41.911,4.02,44.851,20.295,46.135,30.628c2.457,19.761-64.056,49.662-179.114,63.969
				c-115.058,14.307-210.117,3.1-212.574-16.661C-42.8,605.426-15.2,588.836,29.536,573.86c0.236-3.358,0.589-6.689,1.06-9.988
				c-51.265,16.36-83.245,36.175-81.062,53.736c3.699,29.747,104.019,41.76,224.07,26.832
				c120.052-14.928,214.374-51.145,210.675-80.893C382.222,547.004,350.278,535.946,301.677,531.956z"/>
		</g>
		<g style="clip-path:url(#SVGID_2_);">
			<radialGradient id="SVGID_26_" cx="519.1041" cy="47.5346" r="104.9257" gradientUnits="userSpaceOnUse">
				<stop  offset="0" style="stop-color:#00E8DB"/>
				<stop  offset="0.9451" style="stop-color:#00E8DB;stop-opacity:0"/>
			</radialGradient>
			<circle style="fill:url(#SVGID_26_);" cx="519.104" cy="47.535" r="103.708"/>
			<linearGradient id="SVGID_27_" gradientUnits="userSpaceOnUse" x1="482.8161" y1="-5.3149" x2="557.1077" y2="102.8826">
				<stop  offset="0.3284" style="stop-color:#00E8DB"/>
				<stop  offset="1" style="stop-color:#05B0D1"/>
			</linearGradient>
			<circle style="fill:url(#SVGID_27_);" cx="519.104" cy="47.535" r="65.618"/>
		</g>
		<linearGradient id="SVGID_28_" gradientUnits="userSpaceOnUse" x1="759.6735" y1="747.6395" x2="919.0155" y2="641.6913">
			<stop  offset="0" style="stop-color:#552262"/>
			<stop  offset="0.517" style="stop-color:#312D8A"/>
			<stop  offset="1" style="stop-color:#4A6B9E"/>
		</linearGradient>
		<circle style="clip-path:url(#SVGID_2_);fill:url(#SVGID_28_);" cx="836.283" cy="696.701" r="95.674"/>
	</g>
	<g>
		<path style="fill:#1E1B63;" d="M618.82,390.615c0,0,46.015,96.212,57.061,99.233c11.046,3.021,156.226-12.154,156.226-12.154
			s-2.872-24.447-4.584-30.412c-1.711-5.965-5.375-13.858-14.403-12.324c-9.028,1.534-14.924,9.477-14.924,9.477
			s-40.814-0.844-59.68-2.841c-18.866-1.997-29.703-20.142-29.703-20.142L618.82,390.615z"/>
		<g>
			<path style="fill:#C9C5FF;" d="M712.049,388.213l26.471-16.058c0,0,2.429-9.752-6.795-26.775
				c-9.224-17.023-48.948-92.934-48.948-92.934s-9.419-8.831-23.051-0.563c-13.633,8.268-29.045,16.812-29.045,16.812
				l77.925,119.786L712.049,388.213z"/>
			<path style="fill:#3C3476;" d="M712.049,388.213l26.471-16.058c0,0,1.826-8.597-7.398-25.62
				c-9.224-17.023-49.775-92.87-49.775-92.87s-7.989-10.051-21.622-1.783c-13.633,8.268-29.045,16.812-29.045,16.812l77.925,119.786
				L712.049,388.213z"/>
			<g>
				<defs>
					<path id="SVGID_29_" d="M712.049,388.213l26.471-16.058c0,0,2.429-9.752-6.795-26.775
						c-9.224-17.023-48.948-92.934-48.948-92.934s-9.419-8.831-23.051-0.563c-13.633,8.268-29.045,16.812-29.045,16.812
						l77.925,119.786L712.049,388.213z"/>
				</defs>
				<clipPath id="SVGID_30_">
					<use xlink:href="#SVGID_29_"  style="overflow:visible;"/>
				</clipPath>
				
					<radialGradient id="SVGID_31_" cx="444.5048" cy="558.7861" r="52.7854" gradientTransform="matrix(0.997 -0.0776 0.0776 0.997 189.5406 -281.8543)" gradientUnits="userSpaceOnUse">
					<stop  offset="0" style="stop-color:#D96070"/>
					<stop  offset="0.9451" style="stop-color:#D96070;stop-opacity:0"/>
				</radialGradient>
				<circle style="clip-path:url(#SVGID_30_);fill:url(#SVGID_31_);" cx="676.047" cy="240.772" r="52.785"/>
				
					<radialGradient id="SVGID_32_" cx="514.9775" cy="690.0588" r="52.7854" gradientTransform="matrix(0.997 -0.0776 0.0776 0.997 189.5406 -281.8543)" gradientUnits="userSpaceOnUse">
					<stop  offset="0" style="stop-color:#2489C0"/>
					<stop  offset="0.9451" style="stop-color:#2489C0;stop-opacity:0"/>
				</radialGradient>
				<circle style="clip-path:url(#SVGID_30_);fill:url(#SVGID_32_);" cx="756.489" cy="366.183" r="52.785"/>
			</g>
		</g>
		
			<linearGradient id="SVGID_33_" gradientUnits="userSpaceOnUse" x1="259.8347" y1="680.7119" x2="259.7347" y2="661.8495" gradientTransform="matrix(0.997 -0.0776 0.0776 0.997 189.5406 -281.8543)">
			<stop  offset="0" style="stop-color:#6583D2"/>
			<stop  offset="1" style="stop-color:#C9DCFF"/>
		</linearGradient>
		<path style="fill:url(#SVGID_33_);" d="M521.287,355.514c0,0-5.175-4.171-39.499,0.024c-5.235,0.407-4.932,7.868,2.91,7.119
			c4.684-0.364,9.093-0.707,9.093-0.707s-7.796,4.903-1.041,9.783c5.681-0.026,6.337-0.493,6.337-0.493s0.848,12.685,23.025,7.356
			C520.902,363.028,521.287,355.514,521.287,355.514z"/>
		<path style="fill:#A6C8FF;" d="M584.74,321.333l-8.924,24.256c0,0-1.469,4.272-18.658,6.025s-38.437,2.99-38.437,2.99
			l1.993,25.624l53.833,6.068c0,0,19.629,1.106,25.809-8.522c6.181-9.628-2.636-33.89-2.636-33.89L584.74,321.333z"/>
		<path style="fill:#1E3359;" d="M602.37,364.109c-1.663-1.109-3.219-0.783-3.753,3.441c-1.321,10.442-16.512,9.718-18.645,14.564
			c-0.764,1.737-0.059,3.051,1.161,4.022c6.292-0.527,15.372-2.358,19.225-8.36C602.5,374.438,602.84,369.342,602.37,364.109z"/>
		<path style="fill:#0456A1;" d="M523.825,354.287c-3.17,0.205-5.103,0.318-5.103,0.318l1.993,25.624l5.174,0.583L523.825,354.287z"
			/>
		<path style="fill:#637FD1;" d="M666.672,465.894c0,0-59.233-86.174-71.351-102.972c-12.118-16.798-17.39-34.683-18.674-61.887
			c6.524-5.22,31.926-18.977,31.926-18.977l12.178-10.927c0,0,8.873-8.868,40.597,19.433c31.723,28.301,44.261,89.695,44.93,103.642
			c1.851,7.756,10.984,41.418,28.074,49.098c17.091,7.679,28.642,18.977,92.971,17.438c4.716,0.049,9.829,5.195,14.959,42.634
			s4.4,38.743-1.63,39.628c-17.772,1.383-33.52-22.895-34.941-35.812c-17.189,1.753-73.088,8.319-90.367,3.565
			C689.8,506.644,666.672,465.894,666.672,465.894z"/>
		<g>
			<path style="fill:#25344F;" d="M699.177,504.252c-0.331,0.026-0.642-0.191-0.724-0.524c-0.091-0.371,0.135-0.745,0.506-0.836
				c19.855-4.886,32.49-15.935,37.555-32.838c3.781-12.618,1.69-23.919,1.669-24.032c-0.072-0.375,0.174-0.737,0.549-0.808
				c0.373-0.073,0.737,0.174,0.808,0.549c0.022,0.116,2.175,11.75-1.702,24.688c-2.282,7.616-6.172,14.196-11.561,19.556
				c-6.724,6.688-15.804,11.474-26.987,14.227C699.252,504.243,699.214,504.249,699.177,504.252z"/>
		</g>
		<g>
			<path style="fill:#25344F;" d="M684.192,490.603c-0.331,0.026-0.642-0.191-0.724-0.524c-0.091-0.371,0.135-0.745,0.506-0.836
				c24.78-6.098,35.422-19.267,39.986-29.24c4.936-10.787,4.033-20.221,4.023-20.315c-0.039-0.38,0.237-0.719,0.616-0.758
				c0.006-0.001,0.012-0.001,0.018-0.002c0.372-0.029,0.702,0.244,0.741,0.618c0.041,0.399,0.95,9.906-4.141,21.032
				c-2.989,6.531-7.439,12.243-13.226,16.978c-7.211,5.899-16.526,10.283-27.687,13.03
				C684.267,490.594,684.229,490.6,684.192,490.603z"/>
		</g>
		<path style="fill:#49499B;" d="M842.282,503.375c-5.13-37.439-10.243-42.585-14.959-42.634
			c-64.329,1.54-75.88-9.759-92.971-17.438c-17.091-7.679-26.224-41.341-28.074-49.098c-0.669-13.946-13.207-75.341-44.93-103.642
			c-31.723-28.301-40.597-19.433-40.597-19.433l-12.178,10.927c0,0-25.402,13.757-31.926,18.977c0.117,2.486,0.268,4.893,0.455,7.23
			c12.282-5.187,49.648-19.353,72.214-10.25c27.299,11.013,43.654,97.92,47.735,111.185c4.081,13.265,9.824,47.884,33.991,52.102
			s87.513,4.527,93.691,17.02c5.21,10.535,17.068,48.974,20.658,60.766C846.272,534.749,845.274,525.205,842.282,503.375z"/>
		<path style="fill:#E4E7FD;" d="M608.725,281.92l-0.152,0.137c0,0-25.402,13.757-31.926,18.977
			c1.285,27.204,6.557,45.089,18.674,61.887c12.117,16.798,71.351,102.972,71.351,102.972s14.1,24.843,32.441,37.691
			c-24.846-31.69-73.731-117.025-91.645-152.004C592.989,323.312,601.538,296.498,608.725,281.92z"/>
		<g>
			<path style="fill:#A0C2EA;" d="M696.514,392.65c-4.279,0.333-9.725,0.233-15.973-1.035c-10.086-2.046-20.171-6.655-29.975-13.699
				c-12.165-8.74-23.935-21.283-34.985-37.28c-10.661-11.791-15.126-23.867-13.272-35.894c0.792-5.138,2.754-10.265,5.831-15.237
				c2.443-3.947,5.59-7.807,9.356-11.472c6.394-6.224,12.293-9.699,12.541-9.844c0.659-0.385,1.505-0.163,1.89,0.496
				c0.385,0.659,0.163,1.505-0.496,1.89c-0.058,0.034-5.902,3.482-12.06,9.489c-5.62,5.482-12.668,14.289-14.332,25.112
				c-1.719,11.182,2.538,22.511,12.652,33.672l0.061,0.068l0.052,0.075c24.591,35.633,47.989,46.812,63.286,49.914
				c16.397,3.326,27.089-1.645,27.195-1.695c0.688-0.328,1.514-0.036,1.842,0.652c0.328,0.689,0.036,1.514-0.652,1.842
				c-0.119,0.057-2.981,1.405-7.992,2.31C700.078,392.27,698.41,392.503,696.514,392.65z"/>
		</g>
		<path style="fill:#15346B;" d="M674.532,477.896c8.915,12.369,24.363,30.212,40.814,32.859c3.712,1.021,9.207,1.52,15.717,1.656
			c-5.023-4.547-15.294-9.638-17.972-11.044c-5.058-2.656-15.029-13.245-17.365-18.33
			C693.823,478.896,676.687,471.529,674.532,477.896z"/>
		<path style="fill:#38558F;" d="M544.952,224.825c0,0-15.487,16.679-13.997,35.828s25.553,38.067,39.33,36.996
			c19.002-12.289,18.295-21.382,18.295-21.382l-5.046-25.664l-22.857-21.229L544.952,224.825z"/>
		<path style="fill:#313A68;" d="M555.818,293.653c5.157,2.805,10.286,4.321,14.467,3.996
			c19.002-12.289,18.295-21.382,18.295-21.382l-5.046-25.664l-22.857-21.229l-8.188-2.368c-3.138-0.402-6.309-0.42-9.436,0.084
			c-0.729,0.924-1.619,2.111-2.585,3.523C591.095,260.954,566.614,285.578,555.818,293.653z"/>
		<path style="fill:#EEF3FF;" d="M575.263,306.409c0,0,47.51-25.318,49.185-37.645c1.674-12.327-2.282-64.964-46.367-61.535
			c0,0-23.345,2.786-36.544,21.97c12.391,2.501,41.48,11.187,43.509,40.828c1.683,21.629-17.549,25.62-17.549,25.62
			S567.022,310.93,575.263,306.409z"/>
		<path style="fill:#BBCEF0;" d="M593.398,208.548c20.498,23.211,13.484,60.817,10.856,67.886
			c-2.335,6.28-27.189,19.923-36.317,24.762c0.717,3.838,2.571,7.822,7.326,5.213c0,0,47.51-25.318,49.185-37.645
			C625.903,258.05,623.103,216.883,593.398,208.548z"/>
		<path style="fill:#F8FAFF;" d="M630.658,426.977c0,0-1.468,18.548,0.005,30.353s-26.627,6.922-29.313,0.894
			s-7.73-24.945-2.07-39.292C604.938,404.584,630.658,426.977,630.658,426.977z"/>
		<path style="opacity:0.5;fill:#284E84;" d="M667.203,316.981c0,0-1.725-5.394-9.604-22.938
			c-7.879-17.544-27.665-17.113-42.675-8.738c-15.01,8.375-13.005,30.245-10.575,38.66c2.466,8.54,14.98,17.961,14.98,17.961
			c3.847,12.036,6.132,20.036,3.668,25.771c-1.053,2.45-5.398,10.696-10.17,20.192c9.338,13.443,20.569,29.701,30.353,43.889
			l27.124-41.136c10.005-12.143,5.428-25.394,5.428-25.394L667.203,316.981z"/>
		<path style="fill:#CCDDFF;" d="M619.329,341.927c0,0-12.514-9.421-14.98-17.961c-2.43-8.415-4.435-30.285,10.575-38.66
			s34.796-8.805,42.675,8.738s7.576,22.557,7.576,22.557l7.991,49.274c0,0,0.922,11.848-9.083,23.991l-30.678,40.363
			c0,0-21.472-12.328-35.161-8.353c1.782-10.949,22.288-48.442,24.753-54.178C625.461,361.962,623.176,353.963,619.329,341.927z"/>
		<path style="fill:#0456A1;" d="M665.472,318.433l-0.297-1.833c0,0,0.027-0.455-0.149-1.566
			c-5.848,0.326-30.652,2.985-48.385,24.698c1.598,1.375,2.687,2.195,2.687,2.195c0.033,0.104,0.066,0.206,0.099,0.31
			C625.887,336.396,648.877,316.841,665.472,318.433z"/>
		<path style="fill:#1E469E;" d="M666.599,358.069c-0.895,6.307,1.676,14.422-5.195,22.303c-1.343,1.394,0.789,5.848,4.54,7.067
			c8.023-11.247,7.222-21.565,7.222-21.565l-1.982-12.224C669.365,353.659,667.115,354.44,666.599,358.069z"/>
		<path style="fill:#1E469E;" d="M635.849,427.013c-13.481-13.733-31.631-12.249-35.639-11.724
			c-0.998,2.668-1.696,4.931-1.966,6.587c13.689-3.976,35.161,8.353,35.161,8.353L635.849,427.013z"/>
	</g>
</g>
</svg>
