<?xml version="1.0" encoding="iso-8859-1"?>
<!-- Generator: Adobe Illustrator 23.0.0, SVG Export Plug-In . SVG Version: 6.00 Build 0)  -->
<svg version="1.1" id="&#x56FE;&#x5C42;_1" xmlns="http://www.w3.org/2000/svg" xmlns:xlink="http://www.w3.org/1999/xlink" x="0px"
	 y="0px" viewBox="0 0 1040 720" style="enable-background:new 0 0 1040 720;" xml:space="preserve">
<g>
	<path style="fill:#EEF2FF;" d="M8.912,559.569c-30.885-86.071,78.034-109.959,123.487-173.448S3.884,304.088,98.41,205.692
		S281.83,29.19,484.356,14.791c124.333-8.84,515.466,55.852,466.393,223.846s140.984,212.501,70.995,325.078
		S671.596,748.725,530.412,674.983C475.707,646.184,110.477,813.523,8.912,559.569z"/>
	<path style="fill:#C7D0FF;" d="M38.037,556.733c-30.582-86.071,84.636-103.196,129.642-166.684s-136.014-77.67-42.417-176.066
		S346.11,45.989,546.647,31.59c123.112-8.84,441.499,53.889,392.908,221.882c-48.591,167.993,125.858,198.319,56.557,310.897
		s-320.62,184.356-460.418,110.614C481.527,646.184,138.604,810.686,38.037,556.733z"/>
	<g>
		<defs>
			<path id="SVGID_1_" d="M62.55,554.115c-30.214-86.071,78.895-96.433,123.36-159.921s-142.445-81.815-49.974-180.211
				S430.86,43.808,552.253,31.59S971.126,93.115,923.12,261.108c-48.006,167.993,114.703,190.683,46.235,303.261
				S679.548,748.725,541.432,674.983C487.916,646.184,161.907,808.068,62.55,554.115z"/>
		</defs>
		<clipPath id="SVGID_2_">
			<use xlink:href="#SVGID_1_"  style="overflow:visible;"/>
		</clipPath>
		<radialGradient id="SVGID_3_" cx="521.8874" cy="367.6453" r="405.964" gradientUnits="userSpaceOnUse">
			<stop  offset="0" style="stop-color:#060E3F"/>
			<stop  offset="1" style="stop-color:#151E66"/>
		</radialGradient>
		<path style="clip-path:url(#SVGID_2_);fill:url(#SVGID_3_);" d="M62.55,554.115c-30.214-86.071,78.895-96.433,123.36-159.921
			s-142.445-81.815-49.974-180.211S430.86,43.808,552.253,31.59S971.126,93.115,923.12,261.108
			c-48.006,167.993,114.703,190.683,46.235,303.261S679.548,748.725,541.432,674.983C487.916,646.184,161.907,808.068,62.55,554.115
			z"/>
		
			<linearGradient id="SVGID_4_" gradientUnits="userSpaceOnUse" x1="-2307.4048" y1="-2549.623" x2="-2304.4111" y2="-2925.9175" gradientTransform="matrix(1.1687 1.1687 -0.7999 0.7999 1110.7262 5102.4814)">
			<stop  offset="0" style="stop-color:#0C4594;stop-opacity:0"/>
			<stop  offset="0.5307" style="stop-color:#0C4594"/>
			<stop  offset="1" style="stop-color:#0E1755;stop-opacity:0"/>
		</linearGradient>
		<polygon style="opacity:0.3;clip-path:url(#SVGID_2_);fill:url(#SVGID_4_);" points="387.1,349.084 474.283,436.267 
			840.303,70.247 753.12,-16.936 		"/>
		
			<linearGradient id="SVGID_5_" gradientUnits="userSpaceOnUse" x1="-2458.1621" y1="-2607.7014" x2="-2455.1685" y2="-2983.9958" gradientTransform="matrix(1.1687 1.1687 -0.7999 0.7999 1110.7262 5102.4814)">
			<stop  offset="0" style="stop-color:#0C4594;stop-opacity:0"/>
			<stop  offset="0.5307" style="stop-color:#0C4594"/>
			<stop  offset="1" style="stop-color:#0E1755;stop-opacity:0"/>
		</linearGradient>
		<polygon style="opacity:0.3;clip-path:url(#SVGID_2_);fill:url(#SVGID_5_);" points="257.361,126.431 344.543,213.614 
			710.564,-152.407 623.381,-239.589 		"/>
		
			<linearGradient id="SVGID_6_" gradientUnits="userSpaceOnUse" x1="-2155.1125" y1="-2781.1104" x2="-2152.1189" y2="-3157.4048" gradientTransform="matrix(1.1687 1.1687 -0.7999 0.7999 1110.7262 5102.4814)">
			<stop  offset="0" style="stop-color:#0C4594;stop-opacity:0"/>
			<stop  offset="0.5307" style="stop-color:#0C4594"/>
			<stop  offset="1" style="stop-color:#0E1755;stop-opacity:0"/>
		</linearGradient>
		<polygon style="opacity:0.3;clip-path:url(#SVGID_2_);fill:url(#SVGID_6_);" points="750.258,341.908 837.44,429.091 
			1203.461,63.071 1116.278,-24.112 		"/>
		
			<linearGradient id="SVGID_7_" gradientUnits="userSpaceOnUse" x1="-2402.9814" y1="-2074.0176" x2="-2399.9878" y2="-2450.3123" gradientTransform="matrix(1.1687 1.1687 -0.7999 0.7999 1110.7262 5102.4814)">
			<stop  offset="0" style="stop-color:#0C4594;stop-opacity:0"/>
			<stop  offset="0.5307" style="stop-color:#0C4594"/>
			<stop  offset="1" style="stop-color:#0E1755;stop-opacity:0"/>
		</linearGradient>
		<polygon style="opacity:0.4;clip-path:url(#SVGID_2_);fill:url(#SVGID_7_);" points="-105.041,617.817 -17.859,705 
			348.162,338.98 260.979,251.797 		"/>
		
			<linearGradient id="SVGID_8_" gradientUnits="userSpaceOnUse" x1="-2148.0027" y1="-2263.5986" x2="-2145.0093" y2="-2639.8933" gradientTransform="matrix(1.1687 1.1687 -0.7999 0.7999 1110.7262 5102.4814)">
			<stop  offset="0" style="stop-color:#0C4594;stop-opacity:0"/>
			<stop  offset="0.5307" style="stop-color:#0C4594"/>
			<stop  offset="1" style="stop-color:#0E1755;stop-opacity:0"/>
		</linearGradient>
		<polygon style="opacity:0.3;clip-path:url(#SVGID_2_);fill:url(#SVGID_8_);" points="344.609,764.175 431.792,851.358 
			797.812,485.338 710.629,398.155 		"/>
		
			<linearGradient id="SVGID_9_" gradientUnits="userSpaceOnUse" x1="566.2269" y1="-2378.8115" x2="569.2205" y2="-2755.1062" gradientTransform="matrix(0.4219 0.4219 -0.7999 0.7999 -1797.0323 2194.7236)">
			<stop  offset="0" style="stop-color:#0C4594;stop-opacity:0"/>
			<stop  offset="0.5307" style="stop-color:#0C4594"/>
			<stop  offset="1" style="stop-color:#0E1755;stop-opacity:0"/>
		</linearGradient>
		<polygon style="opacity:0.5;clip-path:url(#SVGID_2_);fill:url(#SVGID_9_);" points="305.045,540.294 336.517,571.767 
			702.538,205.746 671.065,174.274 		"/>
		<g style="opacity:0.5;clip-path:url(#SVGID_2_);">
			<linearGradient id="SVGID_10_" gradientUnits="userSpaceOnUse" x1="511.4864" y1="213.8042" x2="511.4864" y2="172.1155">
				<stop  offset="0" style="stop-color:#0C4594;stop-opacity:0"/>
				<stop  offset="1" style="stop-color:#394987"/>
			</linearGradient>
			<polygon style="fill:url(#SVGID_10_);" points="530.56,216.069 492.413,216.069 502.988,168.857 519.985,168.857 			"/>
			<path style="fill:#090933;" d="M543.836,174.333h-65.454c-2.654,0-4.825-2.171-4.825-4.825v-1.264
				c0-2.654,2.171-4.825,4.825-4.825h65.454c2.654,0,4.825,2.171,4.825,4.825v1.264C548.661,172.162,546.49,174.333,543.836,174.333
				z"/>
			<path style="fill:#090933;" d="M529.422,164.131c0,10.114-36.627,10.114-36.627,0s8.199-18.314,18.314-18.314
				C521.223,145.817,529.422,154.016,529.422,164.131z"/>
		</g>
		<g style="opacity:0.5;clip-path:url(#SVGID_2_);">
			<linearGradient id="SVGID_11_" gradientUnits="userSpaceOnUse" x1="697.6093" y1="688.5466" x2="697.6093" y2="663.78">
				<stop  offset="0" style="stop-color:#0C4594;stop-opacity:0"/>
				<stop  offset="1" style="stop-color:#394987"/>
			</linearGradient>
			<polygon style="fill:url(#SVGID_11_);" points="713.237,689.892 681.981,689.892 690.646,661.844 704.572,661.844 			"/>
			<path style="fill:#090933;" d="M725.201,665.097h-55.803c-1.577,0-2.866-1.29-2.866-2.866v-0.751c0-1.577,1.29-2.866,2.866-2.866
				h55.803c1.577,0,2.867,1.29,2.867,2.866v0.751C728.068,663.807,726.778,665.097,725.201,665.097z"/>
			<path style="fill:#090933;" d="M712.305,659.036c0,6.009-30.01,6.009-30.01,0s6.718-10.88,15.005-10.88
				C705.587,648.156,712.305,653.027,712.305,659.036z"/>
		</g>
		<g style="opacity:0.5;clip-path:url(#SVGID_2_);">
			<linearGradient id="SVGID_12_" gradientUnits="userSpaceOnUse" x1="222.8419" y1="473.2583" x2="222.8419" y2="448.4917">
				<stop  offset="0" style="stop-color:#0C4594;stop-opacity:0"/>
				<stop  offset="1" style="stop-color:#394987"/>
			</linearGradient>
			<polygon style="fill:url(#SVGID_12_);" points="238.47,474.604 207.214,474.604 215.879,446.556 229.805,446.556 			"/>
			<path style="fill:#090933;" d="M250.434,449.809h-55.803c-1.577,0-2.867-1.29-2.867-2.866v-0.751c0-1.577,1.29-2.866,2.867-2.866
				h55.803c1.577,0,2.866,1.29,2.866,2.866v0.751C253.301,448.519,252.011,449.809,250.434,449.809z"/>
			<path style="fill:#090933;" d="M237.538,443.748c0,6.009-30.01,6.009-30.01,0c0-6.009,6.718-10.88,15.005-10.88
				C230.82,432.868,237.538,437.739,237.538,443.748z"/>
		</g>
		<radialGradient id="SVGID_13_" cx="927.8994" cy="217.0131" r="193.3818" gradientUnits="userSpaceOnUse">
			<stop  offset="0" style="stop-color:#102785"/>
			<stop  offset="1" style="stop-color:#112586;stop-opacity:0"/>
		</radialGradient>
		<circle style="clip-path:url(#SVGID_2_);fill:url(#SVGID_13_);" cx="927.899" cy="217.013" r="193.382"/>
		
			<radialGradient id="SVGID_14_" cx="-1372.3933" cy="727.8508" r="193.3818" gradientTransform="matrix(1.4434 0 0 1 2517.8379 0)" gradientUnits="userSpaceOnUse">
			<stop  offset="0" style="stop-color:#102785"/>
			<stop  offset="1" style="stop-color:#112586;stop-opacity:0"/>
		</radialGradient>
		<ellipse style="clip-path:url(#SVGID_2_);fill:url(#SVGID_14_);" cx="536.981" cy="727.851" rx="279.119" ry="193.382"/>
		<path style="opacity:0.6;clip-path:url(#SVGID_2_);fill:#2E2E6C;" d="M720.543-4.318C770.21,0.403,831.586,163.38,875.399,194.162
			s83.849,167.321,0,178.274s-19.263,146.925,31.916,204.902c51.178,57.977-50.612,213.966-121.619,177.33
			S657.467,563.363,551.9,589.235S274.103,783.561,219.148,738.049S96.532,645.965,96.532,645.965s89.755-125.471,136.968-85.246
			s168.882-89.139,318.4-113.499c100.846-16.43,134.272,68.363,178.652,77.995c44.38,9.631-69.308-106.511-26.628-167.887
			c42.68-61.376-108.777-378.077-210.378-361.647C758.313-49.265,720.543-4.318,720.543-4.318z"/>
		<g id="&#x70B9;&#x661F;&#x7EC4;" style="clip-path:url(#SVGID_2_);">
			<radialGradient id="SVGID_15_" cx="615.5424" cy="679.8831" r="3.9658" gradientUnits="userSpaceOnUse">
				<stop  offset="0.1955" style="stop-color:#FFFFFF"/>
				<stop  offset="0.8827" style="stop-color:#FFFFFF;stop-opacity:0"/>
			</radialGradient>
			<circle style="fill:url(#SVGID_15_);" cx="615.542" cy="679.883" r="3.966"/>
			<radialGradient id="SVGID_16_" cx="581.3607" cy="424.5586" r="3.9658" gradientUnits="userSpaceOnUse">
				<stop  offset="0.1955" style="stop-color:#FFFFFF"/>
				<stop  offset="0.8827" style="stop-color:#FFFFFF;stop-opacity:0"/>
			</radialGradient>
			<circle style="fill:url(#SVGID_16_);" cx="581.361" cy="424.559" r="3.966"/>
			<radialGradient id="SVGID_17_" cx="99.2281" cy="586.7803" r="3.9658" gradientUnits="userSpaceOnUse">
				<stop  offset="0.1955" style="stop-color:#FFFFFF"/>
				<stop  offset="0.8827" style="stop-color:#FFFFFF;stop-opacity:0"/>
			</radialGradient>
			<circle style="fill:url(#SVGID_17_);" cx="99.228" cy="586.78" r="3.966"/>
			
				<radialGradient id="SVGID_18_" cx="-3040.5901" cy="-3267.6353" r="3.472" gradientTransform="matrix(0.7071 0.7071 -0.7071 0.7071 38.2066 4979.7612)" gradientUnits="userSpaceOnUse">
				<stop  offset="0.1955" style="stop-color:#FFFFFF"/>
				<stop  offset="0.8827" style="stop-color:#FFFFFF;stop-opacity:0"/>
			</radialGradient>
			<circle style="fill:url(#SVGID_18_);" cx="198.752" cy="519.172" r="3.472"/>
			<radialGradient id="SVGID_19_" cx="635.2772" cy="176.1272" r="1.9829" gradientUnits="userSpaceOnUse">
				<stop  offset="0.1955" style="stop-color:#FFFFFF"/>
				<stop  offset="0.8827" style="stop-color:#FFFFFF;stop-opacity:0"/>
			</radialGradient>
			<circle style="fill:url(#SVGID_19_);" cx="635.277" cy="176.127" r="1.983"/>
			<radialGradient id="SVGID_20_" cx="559.5486" cy="158.7531" r="1.9829" gradientUnits="userSpaceOnUse">
				<stop  offset="0.1955" style="stop-color:#FFFFFF"/>
				<stop  offset="0.8827" style="stop-color:#FFFFFF;stop-opacity:0"/>
			</radialGradient>
			<circle style="fill:url(#SVGID_20_);" cx="559.549" cy="158.753" r="1.983"/>
			<radialGradient id="SVGID_21_" cx="565.7806" cy="101.154" r="1.9829" gradientUnits="userSpaceOnUse">
				<stop  offset="0.1955" style="stop-color:#FFFFFF"/>
				<stop  offset="0.8827" style="stop-color:#FFFFFF;stop-opacity:0"/>
			</radialGradient>
			<circle style="fill:url(#SVGID_21_);" cx="565.781" cy="101.154" r="1.983"/>
			<radialGradient id="SVGID_22_" cx="464.1796" cy="116.262" r="1.9829" gradientUnits="userSpaceOnUse">
				<stop  offset="0.1955" style="stop-color:#FFFFFF"/>
				<stop  offset="0.8827" style="stop-color:#FFFFFF;stop-opacity:0"/>
			</radialGradient>
			<circle style="fill:url(#SVGID_22_);" cx="464.18" cy="116.262" r="1.983"/>
			<radialGradient id="SVGID_23_" cx="483.6311" cy="66.5946" r="1.9829" gradientUnits="userSpaceOnUse">
				<stop  offset="0.1955" style="stop-color:#FFFFFF"/>
				<stop  offset="0.8827" style="stop-color:#FFFFFF;stop-opacity:0"/>
			</radialGradient>
			<circle style="fill:url(#SVGID_23_);" cx="483.631" cy="66.595" r="1.983"/>
			<radialGradient id="SVGID_24_" cx="880.4037" cy="184.0589" r="1.9829" gradientUnits="userSpaceOnUse">
				<stop  offset="0.1955" style="stop-color:#FFFFFF"/>
				<stop  offset="0.8827" style="stop-color:#FFFFFF;stop-opacity:0"/>
			</radialGradient>
			<circle style="fill:url(#SVGID_24_);" cx="880.404" cy="184.059" r="1.983"/>
			<radialGradient id="SVGID_25_" cx="839.99" cy="124.5713" r="1.9829" gradientUnits="userSpaceOnUse">
				<stop  offset="0.1955" style="stop-color:#FFFFFF"/>
				<stop  offset="0.8827" style="stop-color:#FFFFFF;stop-opacity:0"/>
			</radialGradient>
			<circle style="fill:url(#SVGID_25_);" cx="839.99" cy="124.571" r="1.983"/>
			<radialGradient id="SVGID_26_" cx="692.8763" cy="354.2122" r="1.9829" gradientUnits="userSpaceOnUse">
				<stop  offset="0.1955" style="stop-color:#FFFFFF"/>
				<stop  offset="0.8827" style="stop-color:#FFFFFF;stop-opacity:0"/>
			</radialGradient>
			<circle style="fill:url(#SVGID_26_);" cx="692.876" cy="354.212" r="1.983"/>
			<radialGradient id="SVGID_27_" cx="198.6574" cy="312.4765" r="1.9829" gradientUnits="userSpaceOnUse">
				<stop  offset="0.1955" style="stop-color:#FFFFFF"/>
				<stop  offset="0.8827" style="stop-color:#FFFFFF;stop-opacity:0"/>
			</radialGradient>
			<circle style="fill:url(#SVGID_27_);" cx="198.657" cy="312.477" r="1.983"/>
			<radialGradient id="SVGID_28_" cx="245.8697" cy="377.4407" r="1.9829" gradientUnits="userSpaceOnUse">
				<stop  offset="0.1955" style="stop-color:#FFFFFF"/>
				<stop  offset="0.8827" style="stop-color:#FFFFFF;stop-opacity:0"/>
			</radialGradient>
			<circle style="fill:url(#SVGID_28_);" cx="245.87" cy="377.441" r="1.983"/>
			<radialGradient id="SVGID_29_" cx="126.5169" cy="576.1103" r="1.9829" gradientUnits="userSpaceOnUse">
				<stop  offset="0.1955" style="stop-color:#FFFFFF"/>
				<stop  offset="0.8827" style="stop-color:#FFFFFF;stop-opacity:0"/>
			</radialGradient>
			<circle style="fill:url(#SVGID_29_);" cx="126.517" cy="576.11" r="1.983"/>
			<radialGradient id="SVGID_30_" cx="77.9826" cy="538.9069" r="1.9829" gradientUnits="userSpaceOnUse">
				<stop  offset="0.1955" style="stop-color:#FFFFFF"/>
				<stop  offset="0.8827" style="stop-color:#FFFFFF;stop-opacity:0"/>
			</radialGradient>
			<circle style="fill:url(#SVGID_30_);" cx="77.983" cy="538.907" r="1.983"/>
			<radialGradient id="SVGID_31_" cx="145.9684" cy="475.0758" r="1.9829" gradientUnits="userSpaceOnUse">
				<stop  offset="0.1955" style="stop-color:#FFFFFF"/>
				<stop  offset="0.8827" style="stop-color:#FFFFFF;stop-opacity:0"/>
			</radialGradient>
			<circle style="fill:url(#SVGID_31_);" cx="145.968" cy="475.076" r="1.983"/>
			<radialGradient id="SVGID_32_" cx="495.5286" cy="653.3497" r="1.9829" gradientUnits="userSpaceOnUse">
				<stop  offset="0.1955" style="stop-color:#FFFFFF"/>
				<stop  offset="0.8827" style="stop-color:#FFFFFF;stop-opacity:0"/>
			</radialGradient>
			<circle style="fill:url(#SVGID_32_);" cx="495.529" cy="653.35" r="1.983"/>
			<radialGradient id="SVGID_33_" cx="675.5021" cy="691.8749" r="1.9829" gradientUnits="userSpaceOnUse">
				<stop  offset="0.1955" style="stop-color:#FFFFFF"/>
				<stop  offset="0.8827" style="stop-color:#FFFFFF;stop-opacity:0"/>
			</radialGradient>
			<circle style="fill:url(#SVGID_33_);" cx="675.502" cy="691.875" r="1.983"/>
			<radialGradient id="SVGID_34_" cx="652.6514" cy="640.3191" r="1.9829" gradientUnits="userSpaceOnUse">
				<stop  offset="0.1955" style="stop-color:#FFFFFF"/>
				<stop  offset="0.8827" style="stop-color:#FFFFFF;stop-opacity:0"/>
			</radialGradient>
			<circle style="fill:url(#SVGID_34_);" cx="652.651" cy="640.319" r="1.983"/>
			<radialGradient id="SVGID_35_" cx="548.7842" cy="609.3478" r="1.9829" gradientUnits="userSpaceOnUse">
				<stop  offset="0.1955" style="stop-color:#FFFFFF"/>
				<stop  offset="0.8827" style="stop-color:#FFFFFF;stop-opacity:0"/>
			</radialGradient>
			<circle style="fill:url(#SVGID_35_);" cx="548.784" cy="609.348" r="1.983"/>
		</g>
		<g id="&#x83F1;&#x661F;&#x7EC4;_1_" style="clip-path:url(#SVGID_2_);">
			<radialGradient id="SVGID_36_" cx="684.9446" cy="458.8348" r="18.6077" gradientUnits="userSpaceOnUse">
				<stop  offset="0.1955" style="stop-color:#FFFFFF"/>
				<stop  offset="0.8827" style="stop-color:#FFFFFF;stop-opacity:0"/>
			</radialGradient>
			<path style="fill:url(#SVGID_36_);" d="M703.074,459.59l-1.564-1.564c0,0-9.705-1.018-11.766-3.079s-3.479-13.866-3.479-13.866
				l-1.32-1.32l-1.351,1.351c0,0-0.657,11.421-3.288,13.675s-11.791,3.104-11.791,3.104l-1.7,1.7l1.893,1.893
				c0,0,8.654-0.222,11.643,2.956c2.989,3.178,3.492,12.368,3.492,12.368l1.102,1.102l1.219-1.219c0,0,0.099-8.786,3.264-12.14
				s12.166-3.479,12.166-3.479L703.074,459.59z"/>
			<radialGradient id="SVGID_37_" cx="595.9965" cy="639.5637" r="13.4491" gradientUnits="userSpaceOnUse">
				<stop  offset="0.1955" style="stop-color:#FFFFFF"/>
				<stop  offset="0.8827" style="stop-color:#FFFFFF;stop-opacity:0"/>
			</radialGradient>
			<path style="fill:url(#SVGID_37_);" d="M609.1,640.11l-1.13-1.131c0,0-7.015-0.736-8.504-2.225s-2.515-10.022-2.515-10.022
				l-0.954-0.954l-0.976,0.976c0,0-0.475,8.255-2.377,9.884s-8.522,2.243-8.522,2.243l-1.228,1.228l1.368,1.368
				c0,0,6.255-0.16,8.415,2.136c2.16,2.297,2.524,8.939,2.524,8.939l0.797,0.797l0.881-0.881c0,0,0.071-6.35,2.359-8.774
				s8.794-2.515,8.794-2.515L609.1,640.11z"/>
			<radialGradient id="SVGID_38_" cx="122.3622" cy="538.9069" r="8.8432" gradientUnits="userSpaceOnUse">
				<stop  offset="0.1955" style="stop-color:#FFFFFF"/>
				<stop  offset="0.8827" style="stop-color:#FFFFFF;stop-opacity:0"/>
			</radialGradient>
			<path style="fill:url(#SVGID_38_);" d="M130.978,539.266l-0.743-0.743c0,0-4.612-0.484-5.592-1.463
				c-0.979-0.979-1.654-6.59-1.654-6.59l-0.627-0.627l-0.642,0.642c0,0-0.312,5.428-1.563,6.499
				c-1.251,1.071-5.604,1.475-5.604,1.475l-0.808,0.808l0.899,0.899c0,0,4.113-0.105,5.533,1.405s1.659,5.878,1.659,5.878
				l0.524,0.524l0.579-0.58c0,0,0.047-4.175,1.551-5.769c1.504-1.594,5.782-1.654,5.782-1.654L130.978,539.266z"/>
			<radialGradient id="SVGID_39_" cx="520.4568" cy="99.0767" r="8.8432" gradientUnits="userSpaceOnUse">
				<stop  offset="0.1955" style="stop-color:#FFFFFF"/>
				<stop  offset="0.8827" style="stop-color:#FFFFFF;stop-opacity:0"/>
			</radialGradient>
			<path style="fill:url(#SVGID_39_);" d="M529.073,99.436l-0.743-0.743c0,0-4.612-0.484-5.592-1.463
				c-0.979-0.979-1.654-6.59-1.654-6.59l-0.627-0.627l-0.642,0.642c0,0-0.312,5.428-1.563,6.499
				c-1.251,1.071-5.604,1.475-5.604,1.475l-0.808,0.808l0.899,0.899c0,0,4.113-0.105,5.533,1.405s1.659,5.878,1.659,5.878
				l0.524,0.524l0.579-0.579c0,0,0.047-4.175,1.551-5.769s5.782-1.654,5.782-1.654L529.073,99.436z"/>
			<radialGradient id="SVGID_40_" cx="877.0045" cy="157.62" r="8.8432" gradientUnits="userSpaceOnUse">
				<stop  offset="0.1955" style="stop-color:#FFFFFF"/>
				<stop  offset="0.8827" style="stop-color:#FFFFFF;stop-opacity:0"/>
			</radialGradient>
			<path style="fill:url(#SVGID_40_);" d="M885.62,157.979l-0.743-0.743c0,0-4.612-0.484-5.592-1.463s-1.654-6.59-1.654-6.59
				l-0.627-0.627l-0.642,0.642c0,0-0.312,5.428-1.563,6.499c-1.251,1.071-5.604,1.475-5.604,1.475l-0.808,0.808l0.899,0.899
				c0,0,4.113-0.105,5.533,1.405s1.659,5.878,1.659,5.878l0.524,0.524l0.579-0.579c0,0,0.047-4.175,1.551-5.769
				c1.504-1.594,5.782-1.654,5.782-1.654L885.62,157.979z"/>
		</g>
		<g style="clip-path:url(#SVGID_2_);">
			
				<radialGradient id="SVGID_41_" cx="698.291" cy="-1164.8451" r="219.918" gradientTransform="matrix(0.8468 0.1651 -0.1651 0.8467 -508.9492 1036.4814)" gradientUnits="userSpaceOnUse">
				<stop  offset="0" style="stop-color:#F55C8A"/>
				<stop  offset="0.9451" style="stop-color:#F55C8A;stop-opacity:0"/>
			</radialGradient>
			<ellipse style="fill:url(#SVGID_41_);" cx="274.668" cy="165.475" rx="187.529" ry="187.509"/>
			<linearGradient id="SVGID_42_" gradientUnits="userSpaceOnUse" x1="185.1494" y1="84.0523" x2="359.4952" y2="242.6321">
				<stop  offset="0.2683" style="stop-color:#FFC68D"/>
				<stop  offset="1" style="stop-color:#EF4B84"/>
			</linearGradient>
			<circle style="fill:url(#SVGID_42_);" cx="274.668" cy="165.475" r="117.822"/>
			<linearGradient id="SVGID_43_" gradientUnits="userSpaceOnUse" x1="160.4477" y1="140.5951" x2="392.5103" y2="140.5951">
				<stop  offset="0" style="stop-color:#FBE091"/>
				<stop  offset="1" style="stop-color:#FFACC0"/>
			</linearGradient>
			<path style="fill:url(#SVGID_43_);" d="M389.828,140.446c-0.043-0.075-0.086-0.149-0.13-0.224
				c-17.138-3.464-48.05-40.479-58.758-41.473c-25.532-2.371-99.792,12.676-127.134,2.159c-6.698-2.576-12.454-7.347-17.677-13.194
				c-0.001,0.001-0.002,0.002-0.003,0.003c-0.373,0.424-0.743,0.85-1.11,1.28c-0.002,0.002-0.003,0.004-0.005,0.006
				c-1.474,1.725-2.901,3.496-4.278,5.31c-0.001,0.002-0.003,0.003-0.004,0.005c-0.341,0.449-0.679,0.902-1.014,1.356
				c-0.005,0.006-0.009,0.013-0.014,0.019c-1.35,1.834-2.649,3.712-3.895,5.631c-0.001,0.002-0.003,0.004-0.004,0.006
				c-0.307,0.473-0.611,0.949-0.912,1.427c-0.007,0.012-0.015,0.024-0.022,0.035c-1.218,1.938-2.382,3.917-3.49,5.935
				c-0.001,0.002-0.002,0.003-0.003,0.005c-0.273,0.496-0.541,0.995-0.807,1.496c-0.009,0.016-0.017,0.033-0.026,0.049
				c-1.079,2.037-2.101,4.113-3.065,6.226c0,0,0,0.001,0,0.001c-0.237,0.519-0.47,1.041-0.699,1.565
				c-0.009,0.02-0.018,0.041-0.027,0.061c-1.161,2.654-2.23,5.364-3.202,8.129c-0.008,0.024-0.017,0.047-0.025,0.071
				c-0.969,2.763-1.841,5.579-2.612,8.445c-0.008,0.029-0.015,0.057-0.023,0.086c-0.151,0.565-0.299,1.131-0.442,1.699
				c7.941,7.527,17.742,13.512,29.769,16.118c48.536,10.516,101.763-12.296,121.501-6.148c17.647,5.497,40.208,38.796,77.396,46.946
				c0.217-0.892,0.426-1.788,0.624-2.689c0.021-0.094,0.04-0.189,0.061-0.284c0.078-0.358,0.155-0.716,0.23-1.075
				c0.097-0.468,0.192-0.937,0.284-1.408C393.48,171.773,393.142,155.655,389.828,140.446z"/>
			
				<linearGradient id="SVGID_44_" gradientUnits="userSpaceOnUse" x1="-386.2089" y1="-1625.1483" x2="37.5337" y2="-1625.1483" gradientTransform="matrix(0.9504 0.311 -0.311 0.9504 -71.0614 1771.6284)">
				<stop  offset="0" style="stop-color:#FBC255"/>
				<stop  offset="1" style="stop-color:#FF4060"/>
			</linearGradient>
			<path style="opacity:0.4;fill:url(#SVGID_44_);" d="M392.151,153.959c0.195,3.265,0.313,3.541,0.272,6.846
				c37.588,16.421,55.207,35.592,53.266,45.548c-3.712,19.041-74.357,26.573-185.225,4.958S64.977,150.515,68.689,131.474
				c2.077-10.655,32.659-17.654,78.618-17.965c1.235-3.037,2.572-6.015,4.007-8.927c-52.424-0.386-88.038,8.271-91.337,25.193
				c-5.588,28.664,83.658,70.184,199.337,92.737s213.986,17.6,219.575-11.064C481.997,195.507,435.942,172.379,392.151,153.959z"/>
		</g>
		<g style="clip-path:url(#SVGID_2_);">
			
				<radialGradient id="SVGID_45_" cx="2253.7153" cy="457.3224" r="147.9959" gradientTransform="matrix(0.8381 -0.2046 0.2045 0.8381 -1028.7339 525.3043)" gradientUnits="userSpaceOnUse">
				<stop  offset="0" style="stop-color:#47B7A4"/>
				<stop  offset="0.9451" style="stop-color:#B0D67A;stop-opacity:0"/>
			</radialGradient>
			<path style="fill:url(#SVGID_45_);" d="M1076.297,417.563c16.524,67.704-24.971,135.987-92.681,152.515
				c-67.71,16.528-135.994-24.959-152.518-92.662s24.971-135.987,92.681-152.515C991.489,308.373,1059.773,349.859,1076.297,417.563
				z"/>
			<linearGradient id="SVGID_46_" gradientUnits="userSpaceOnUse" x1="890.8339" y1="398.7203" x2="1016.1333" y2="495.9268">
				<stop  offset="0.238" style="stop-color:#E2E76A"/>
				<stop  offset="1" style="stop-color:#0077C6"/>
			</linearGradient>
			<circle style="fill:url(#SVGID_46_);" cx="953.697" cy="447.489" r="79.289"/>
			
				<linearGradient id="SVGID_47_" gradientUnits="userSpaceOnUse" x1="1247.1132" y1="1778.9905" x2="1403.282" y2="1778.9905" gradientTransform="matrix(0.9082 -0.4186 0.4186 0.9082 -1000.4401 -629.0452)">
				<stop  offset="0" style="stop-color:#D2F2CD"/>
				<stop  offset="1" style="stop-color:#8ADCA0"/>
			</linearGradient>
			<path style="fill:url(#SVGID_47_);" d="M1017.026,399.749c-0.048-0.034-0.094-0.067-0.142-0.101
				c-11.45,2.711-37.78,0.973-44.605,3.382c-16.272,5.744-60.406,23.686-80.079,24.962c-4.819,0.313-9.681-0.982-14.521-3.083
				c0,0.001-0.001,0.002-0.001,0.003c-0.109,0.364-0.214,0.729-0.318,1.095c0,0.002-0.001,0.003-0.001,0.005
				c-0.415,1.47-0.788,2.954-1.118,4.451c0,0.001-0.001,0.003-0.001,0.004c-0.082,0.371-0.161,0.742-0.237,1.114
				c-0.001,0.005-0.002,0.01-0.003,0.015c-0.308,1.501-0.573,3.015-0.794,4.539c0,0.002,0,0.003-0.001,0.005
				c-0.054,0.376-0.106,0.752-0.155,1.129c-0.001,0.009-0.002,0.019-0.004,0.028c-0.198,1.527-0.352,3.065-0.461,4.611
				c0,0.001,0,0.003,0,0.004c-0.027,0.38-0.051,0.761-0.072,1.142c-0.001,0.012-0.001,0.025-0.002,0.037
				c-0.086,1.549-0.126,3.105-0.119,4.668c0,0,0,0,0,0.001c0.002,0.384,0.006,0.769,0.013,1.153c0,0.015,0.001,0.03,0.001,0.045
				c0.038,1.949,0.148,3.907,0.333,5.87c0.002,0.017,0.003,0.034,0.005,0.051c0.186,1.961,0.446,3.928,0.783,5.897
				c0.003,0.02,0.007,0.039,0.01,0.059c0.067,0.388,0.136,0.775,0.208,1.163c6.974,2.363,14.65,3.26,22.734,1.464
				c32.625-7.247,57.549-44.275,71.344-46.078c12.333-1.612,36.683,20.473,61.706,14.978c-0.118-0.606-0.244-1.213-0.376-1.819
				c-0.014-0.063-0.029-0.127-0.043-0.19c-0.053-0.241-0.107-0.481-0.162-0.722c-0.073-0.313-0.147-0.627-0.223-0.94
				C1028.084,417.866,1023.336,408.11,1017.026,399.749z"/>
			
				<linearGradient id="SVGID_48_" gradientUnits="userSpaceOnUse" x1="1188.5209" y1="-405.0008" x2="1473.6569" y2="-405.0008" gradientTransform="matrix(0.9933 -0.1154 0.1154 0.9933 -323.3044 1009.6141)">
				<stop  offset="0" style="stop-color:#7EDBD5"/>
				<stop  offset="1" style="stop-color:#50DCFF"/>
			</linearGradient>
			<path style="opacity:0.4;fill:url(#SVGID_48_);" d="M1022.253,407.353c1.039,1.941,1.189,2.076,2.095,4.107
				c27.598-0.554,43.767,6.199,45.385,12.83c3.096,12.683-37.957,37.189-111.804,55.213
				c-73.847,18.024-117.582,13.449-120.678,0.766c-1.732-7.097,9.188-17.22,37.188-30.358c-0.101-2.204-0.123-4.4-0.066-6.585
				c-32.148,14.533-64.694,31.557-61.943,42.828c4.66,19.092,70.9,19.324,147.952,0.518
				c77.051-18.806,135.736-49.529,131.076-68.622C1088.868,407.433,1054.205,406.273,1022.253,407.353z"/>
		</g>
		<g style="clip-path:url(#SVGID_2_);">
			
				<linearGradient id="SVGID_49_" gradientUnits="userSpaceOnUse" x1="-818.1959" y1="-927.1619" x2="-740.0123" y2="-927.1619" gradientTransform="matrix(0.9546 0.298 -0.298 0.9546 737.0816 1791.6642)">
				<stop  offset="0.5808" style="stop-color:#E83F08"/>
				<stop  offset="0.9696" style="stop-color:#F4AA32"/>
			</linearGradient>
			<circle style="fill:url(#SVGID_49_);" cx="269.68" cy="674.45" r="39.092"/>
			<path style="fill:#ED6943;" d="M255.932,664.619c-6.31-1.97-14.801-5.874-20.665-8.724c-0.741,1.379-1.407,2.814-1.989,4.304
				c6.145,3.09,15.393,7.693,22.159,9.805c10.275,3.208,35.049,2.435,44.963,5.53c3.919,1.223,6.432,2.688,8.04,4.012
				c1.008-7.596-0.273-15.13-3.407-21.771C292.467,655.964,266.008,667.764,255.932,664.619z"/>
			<path style="fill:#ED6943;" d="M306.408,687.833c-8.145,0.445-28.824,0.943-42.945-4.245
				c-17.926-6.586-6.451,15.594,2.483,17.394c7.37,1.485,22.021,3.358,31.529,0.964C301.336,698.05,304.425,693.287,306.408,687.833
				z"/>
			<path style="fill:#FFDFD7;" d="M308.641,677.707c-0.078,0.918-0.187,1.838-0.332,2.759c3.057,2.822,4.493,5.435,3.837,7.538
				c-2.005,6.422-22.761,5.655-46.361-1.713s-41.106-18.546-39.101-24.968c0.68-2.177,3.516-3.526,7.885-4.074
				c0.393-0.805,0.814-1.591,1.257-2.359c-12.672-1.307-21.344-0.083-22.592,3.916c-2.269,7.268,20.831,20.945,51.595,30.55
				c30.764,9.604,57.542,11.498,59.811,4.231C325.875,689.63,319.589,683.772,308.641,677.707z"/>
		</g>
		<g style="clip-path:url(#SVGID_2_);">
			
				<linearGradient id="SVGID_50_" gradientUnits="userSpaceOnUse" x1="560.6475" y1="3207.6628" x2="578.8815" y2="3207.6628" gradientTransform="matrix(0.7071 -0.7071 0.7071 0.7071 -1833.7676 -1606.1067)">
				<stop  offset="0" style="stop-color:#FFB702"/>
				<stop  offset="0.4918" style="stop-color:#FF9300"/>
				<stop  offset="1" style="stop-color:#D57900"/>
			</linearGradient>
			<path style="fill:url(#SVGID_50_);" d="M820.074,252.798c0,0,0.941,5.996,5.291,9.641c4.35,3.645,11.052,5.879,11.464,5.467
				c0.412-0.411-5.173-3.88-5.115-4.292c0.059-0.412,6.173,1.352,13.639,11.052c-1.411-4.585-3.175-10.464-8.642-16.284
				c1.058,0.823,11.758,9.288,12.052,9.582c-0.118-1.058-1.94-9.582-13.11-15.344c1.176-0.118,10.17,1.822,10.641,2.058
				c-0.588-0.823-5.761-7.407-6.996-10.405s-5.173-5.526-5.173-5.526L820.074,252.798z"/>
			
				<linearGradient id="SVGID_51_" gradientUnits="userSpaceOnUse" x1="565.795" y1="3199.5151" x2="574.6619" y2="3199.5151" gradientTransform="matrix(0.7071 -0.7071 0.7071 0.7071 -1833.7676 -1606.1067)">
				<stop  offset="0" style="stop-color:#FF810D"/>
				<stop  offset="0.4918" style="stop-color:#F46600"/>
				<stop  offset="0.9696" style="stop-color:#E44900"/>
			</linearGradient>
			<path style="fill:url(#SVGID_51_);" d="M823.478,249.982c0,0,0.457,2.916,2.573,4.688c2.115,1.772,5.375,2.859,5.575,2.659
				c0.2-0.2-2.516-1.887-2.487-2.087c0.029-0.2,3.002,0.658,6.632,5.374c-0.686-2.23-1.544-5.089-4.202-7.919
				c0.515,0.4,5.718,4.517,5.86,4.66c-0.057-0.515-0.943-4.66-6.375-7.461c0.572-0.057,4.946,0.886,5.174,1.001
				c-0.286-0.4-2.802-3.602-3.402-5.06c-0.6-1.458-2.516-2.687-2.516-2.687L823.478,249.982z"/>
			<path style="fill:#FEC500;" d="M824.871,248.589c0,0,0.241,1.536,1.356,2.47c1.115,0.934,2.832,1.506,2.937,1.401
				c0.105-0.105-1.326-0.994-1.31-1.1s1.582,0.346,3.495,2.832c-0.362-1.175-0.813-2.681-2.214-4.172
				c0.271,0.211,3.013,2.38,3.088,2.455c-0.03-0.271-0.497-2.455-3.359-3.931c0.301-0.03,2.606,0.467,2.726,0.527
				c-0.151-0.211-1.476-1.898-1.792-2.666c-0.316-0.768-1.326-1.416-1.326-1.416L824.871,248.589z"/>
			<path style="fill:#87080E;" d="M787.506,235.162c0,0-1.47,4.997-0.353,8.818s2.234,8.936,17.578,17.578
				c-0.647-3.704,1.058-12.581,2.41-13.462C804.554,246.449,787.506,235.162,787.506,235.162z"/>
			<path style="fill:#87080E;" d="M816.473,206.194c0,0,4.997-1.47,8.818-0.353c3.821,1.117,8.936,2.234,17.578,17.578
				c-3.704-0.647-12.581,1.058-13.462,2.41C827.761,223.242,816.473,206.194,816.473,206.194z"/>
			
				<linearGradient id="SVGID_52_" gradientUnits="userSpaceOnUse" x1="552.7305" y1="3152.334" x2="591.5366" y2="3152.334" gradientTransform="matrix(0.7071 -0.7071 0.7071 0.7071 -1833.7676 -1606.1067)">
				<stop  offset="0.1474" style="stop-color:#E0EBFF"/>
				<stop  offset="0.9522" style="stop-color:#B8CBFE"/>
			</linearGradient>
			<path style="fill:url(#SVGID_52_);" d="M786.448,234.809c-14.462-14.462-21.516-38.095-14.932-44.679
				c8.348-8.348,34.92,4.821,43.679,13.462s15.285,17.284,19.518,33.392c0.588,2.469-7.642,10.699-7.642,10.699
				s-4.821,4.585-8.054,6.29S796.794,245.155,786.448,234.809z"/>
			
				<linearGradient id="SVGID_53_" gradientUnits="userSpaceOnUse" x1="560.3416" y1="3146.0156" x2="583.5381" y2="3146.0156" gradientTransform="matrix(0.7071 -0.7071 0.7071 0.7071 -1833.7676 -1606.1067)">
				<stop  offset="0" style="stop-color:#CADCFE"/>
				<stop  offset="1" style="stop-color:#A5C5FF"/>
			</linearGradient>
			<circle style="fill:url(#SVGID_53_);" cx="795.442" cy="213.822" r="13.801"/>
			
				<linearGradient id="SVGID_54_" gradientUnits="userSpaceOnUse" x1="565.8788" y1="3145.9592" x2="578.663" y2="3146.072" gradientTransform="matrix(0.7071 -0.7071 0.7071 0.7071 -1833.7676 -1606.1067)">
				<stop  offset="0" style="stop-color:#0600D1"/>
				<stop  offset="1" style="stop-color:#020264"/>
			</linearGradient>
			<circle style="fill:url(#SVGID_54_);" cx="795.442" cy="213.822" r="8.73"/>
			<path style="fill:#A40629;" d="M817.723,238.101c-7.22,5.889-13.28,8.744-14.723,9.383c7.426,4.553,14.202,7.447,16.016,6.49
				c1.567-0.826,3.508-2.33,5.091-3.659l3.08-2.748l2.609-2.789c2.337-2.619,5.275-6.283,4.916-7.793
				c-1.503-5.718-3.294-10.494-5.372-14.664C829.328,222.354,825.996,231.353,817.723,238.101z"/>
			
				<linearGradient id="SVGID_55_" gradientUnits="userSpaceOnUse" x1="571.1126" y1="3178.5652" x2="573.061" y2="3178.5652" gradientTransform="matrix(0.7071 -0.7071 0.7071 0.7071 -1833.7676 -1606.1067)">
				<stop  offset="0" style="stop-color:#A80263"/>
				<stop  offset="1" style="stop-color:#7E3167"/>
			</linearGradient>
			<path style="fill:url(#SVGID_55_);" d="M808.728,227.225c0,0,12.052,9.23,19.576,17.695c0.412,0.412,0.612,0.801,0.395,1.019
				c-0.103,0.103-0.399,0.399-0.698,0.698c-0.332,0.332-0.67,0.669-0.755,0.752c-0.353,0.353-0.941-0.353-2.058-1.352
				C815.371,236.22,808.728,227.225,808.728,227.225z"/>
			<path style="fill:#A40629;" d="M771.515,190.13c-3.829,3.829-3.045,13.422,1.124,23.625c0.003-0.006,4.521-8.929,9.634-13.69
				c5.111-4.759,12.854-8.802,12.863-8.807C785.728,187.368,775.996,185.649,771.515,190.13z"/>
		</g>
		<g style="clip-path:url(#SVGID_2_);">
			<linearGradient id="SVGID_56_" gradientUnits="userSpaceOnUse" x1="67.8945" y1="643.5034" x2="234.0297" y2="728.1002">
				<stop  offset="0" style="stop-color:#5A2161"/>
				<stop  offset="0.2643" style="stop-color:#35277A"/>
				<stop  offset="0.5286" style="stop-color:#22196C"/>
				<stop  offset="0.7862" style="stop-color:#2E2E82"/>
				<stop  offset="1" style="stop-color:#3E4D8D"/>
			</linearGradient>
			<circle style="fill:url(#SVGID_56_);" cx="150.557" cy="685.596" r="93.207"/>
			<linearGradient id="SVGID_57_" gradientUnits="userSpaceOnUse" x1="143.1274" y1="632.8714" x2="164.0835" y2="632.8714">
				<stop  offset="0" style="stop-color:#21195E"/>
				<stop  offset="1" style="stop-color:#5586AE"/>
			</linearGradient>
			<ellipse style="opacity:0.5;fill:url(#SVGID_57_);" cx="153.605" cy="632.871" rx="10.476" ry="7.731"/>
			<linearGradient id="SVGID_58_" gradientUnits="userSpaceOnUse" x1="177.7632" y1="654.5892" x2="210.0179" y2="654.5892">
				<stop  offset="0" style="stop-color:#21195E"/>
				<stop  offset="1" style="stop-color:#5586AE"/>
			</linearGradient>
			<ellipse style="opacity:0.5;fill:url(#SVGID_58_);" cx="193.891" cy="654.589" rx="16.124" ry="11.899"/>
			<linearGradient id="SVGID_59_" gradientUnits="userSpaceOnUse" x1="136.9717" y1="674.6072" x2="169.2265" y2="674.6072">
				<stop  offset="0" style="stop-color:#21195E"/>
				<stop  offset="1" style="stop-color:#5586AE"/>
			</linearGradient>
			<ellipse style="opacity:0.5;fill:url(#SVGID_59_);" cx="153.099" cy="674.607" rx="16.124" ry="11.899"/>
		</g>
	</g>
	<g>
		<g>
			<linearGradient id="SVGID_60_" gradientUnits="userSpaceOnUse" x1="245.5864" y1="358.4551" x2="399.4585" y2="358.4551">
				<stop  offset="0" style="stop-color:#E2E76A;stop-opacity:0"/>
				<stop  offset="0.5056" style="stop-color:#E2E76A;stop-opacity:0.5"/>
				<stop  offset="1" style="stop-color:#007CC1"/>
			</linearGradient>
			<path style="fill:url(#SVGID_60_);" d="M391.608,384.411c0-0.001-0.001-0.002-0.001-0.002l3.926-3.097L391.608,384.411z
				 M391.607,384.409c-0.407-0.514-33.507-41.91-64.249-41.91c-15.18,0-26.028,7.219-37.514,14.861
				c-12.461,8.291-25.347,16.865-44.258,16.865v-10c15.888,0,26.978-7.379,38.718-15.191c12.218-8.129,24.852-16.536,43.054-16.536
				c15.164,0,31.965,7.773,49.938,23.103c13.067,11.146,21.797,22.151,22.163,22.614L391.607,384.409z"/>
		</g>
		<path style="fill:#D9E6FF;" d="M387.803,459.081l-26.362-27.796c0,0-4.125-4.483,2.511-16.14s36.942-65.994,36.942-65.994
			s45.909-72.809,67.787,10.939C442.858,416.938,387.803,459.081,387.803,459.081z"/>
		<path style="fill:#637FA8;" d="M396.949,468.586l-23.142-24.401c0.055-2.574,0.915-6.264,3.774-11.286
			c6.635-11.657,36.942-65.994,36.942-65.994s33.189-52.634,56.577-16.921c2.415,5.288,4.677,11.762,6.727,19.611
			C452.004,426.443,396.949,468.586,396.949,468.586z"/>
		<path style="fill:#6A87AA;" d="M292.219,481.609c0,0-1.532-4.687-5.67-7.004c-4.169-2.335-12.508-4.336-15.176-3.002
			c-2.668,1.334-23.849,19.679-25.35,43.194c-1.501,23.515,0.334,36.857,15.176,40.193c14.843,3.335,19.846-21.681,19.846-21.681
			L292.219,481.609z"/>
		<path style="fill:#788AA8;" d="M466.081,522.655c0,0-31.024,38.198-88.231,59.538c-24.389,8.787-50.392-14.885-50.392-14.885
			l-47.215-75.175c0,0,2.741-5.704,6.148-11.263s45.115,35.734,71.284,30.397C384.933,505.708,466.081,522.655,466.081,522.655z"/>
		<path style="fill:#A04333;" d="M373.162,583.494c0,0-4.766,7.363-10.395,0.655s-14.775-39.167-12.982-56.921
			c1.793-17.754,11.657,24.927,11.657,24.927S362.825,574.662,373.162,583.494z"/>
		<path style="fill:#A04333;" d="M290.605,481.319c0,0-2.331-2.511-4.125-0.538c-1.793,1.973-6.635,10.401-6.994,15.064
			c-0.359,4.663,5.38-1.793,5.38-1.793S284.127,487.961,290.605,481.319z"/>
		<path style="fill:#CFE3FF;" d="M283.611,480.601c0,0-1.647-5.04-6.097-7.532c-4.483-2.511-13.45-4.663-16.319-3.228
			c-2.869,1.435-25.644,21.161-27.258,46.447c-1.614,25.286,0.359,39.632,16.319,43.219c15.961,3.587,21.34-23.313,21.34-23.313
			L283.611,480.601z"/>
		<path style="fill:#DAE4F7;" d="M520.867,387.707c0,0,15.064,10.939,19.547,35.328c1.435,5.918,6.277,16.499,20.444,20.803
			c14.167,4.304,42.86,3.228,35.687,28.155c-7.173,24.927-35.687,14.347-43.757,12.195c-8.07-2.152-38.736-8.608-40.888-30.307
			C509.748,432.182,520.867,387.707,520.867,387.707z"/>
		<path style="fill:#D9E6FF;" d="M519.97,390.218c0,0,9.505,43.219-11.298,76.933c-20.803,33.714-46.626,91.639-162.833,110.648
			c-30.307,5.559-86.797-45.192-89.128-48.42c-2.331-3.228-12.195-21.161,18.651-46.985c2.152-1.793,42.681,20.623,53.8,26.182
			c11.119,5.559,38.556-16.857,45.909-27.438c7.353-10.581,32.1-100.605,48.958-105.447c16.857-4.842,17.879-9.622,24.631-6.783
			C455.411,371.747,519.97,390.218,519.97,390.218z"/>
		<g>
			<path style="fill:#7498D1;" d="M412.134,468.755c2.666,0,5.179-0.456,7.522-1.367c8.948-3.48,22.261-10.856,32.792-21.123
				c11.807-11.51,17.166-23.724,15.497-35.321c-2.059-14.313-9.337-24.434-15.079-30.405c-6.699-6.966-13.42-10.589-15.625-11.252
				c-0.948-0.286-1.948,0.252-2.234,1.201c-0.285,0.948,0.252,1.948,1.201,2.234c3.099,0.932,24.486,13.006,28.188,38.733
				c1.893,13.159-6.813,24.797-14.451,32.242c-10.146,9.891-22.97,16.996-31.588,20.348c-17.998,7-42.951-20.759-43.201-21.04
				c-0.658-0.74-1.792-0.807-2.532-0.149c-0.74,0.658-0.807,1.791-0.149,2.532c0.269,0.303,6.694,7.488,15.633,13.854
				c5.303,3.777,10.389,6.467,15.115,7.996C406.348,468.249,409.326,468.755,412.134,468.755z"/>
		</g>
		<path style="fill:#D84545;" d="M519.389,440.134c-2.018,9.036-5.364,18.342-10.717,27.017c-2.795,4.529-5.68,9.496-8.863,14.746
			c-10.704,0.882-24.851-4.524-24.851-4.524s8.967-26.72,12.195-36.225C506.879,445.273,510.53,443.069,519.389,440.134z"/>
		<g>
			<path style="fill:#7498D1;" d="M512.854,461.224c0.617,0,1.218-0.319,1.551-0.89c6.05-10.376,9.485-25.378,10.211-44.591
				c0.537-14.222-0.698-25.609-0.711-25.722c-0.109-0.984-0.996-1.695-1.979-1.585c-0.984,0.109-1.694,0.995-1.585,1.979
				c0.012,0.111,1.221,11.278,0.69,25.245c-0.698,18.331-4.06,33.155-9.723,42.868c-0.499,0.856-0.21,1.954,0.646,2.453
				C512.236,461.146,512.547,461.224,512.854,461.224z"/>
		</g>
		<path style="opacity:0.8;fill:#94A4C4;" d="M256.711,529.38c-2.331-3.228-12.195-21.161,18.651-46.985
			c0.17-0.142,0.581-0.132,1.197,0.009c-4.043,0.668-20.189,33.573-16.62,43.21c3.587,9.684,38.556,29.41,51.468,37.839
			c12.912,8.429,20.982-1.973,20.982-1.973l8.967,16.678l-0.182,0.063C310.091,578.467,258.927,532.448,256.711,529.38z"/>
		<g style="opacity:0.8;">
			<path style="opacity:0.8;fill:#94A4C4;" d="M456.853,533.236c0.109-0.088,0.217-0.176,0.325-0.265
				C457.07,533.06,456.962,533.148,456.853,533.236z"/>
			<path style="opacity:0.8;fill:#94A4C4;" d="M458.021,532.283l0.001,0c-0.05,0.041-0.101,0.082-0.151,0.123
				C457.922,532.365,457.971,532.324,458.021,532.283z"/>
			<path style="opacity:0.8;fill:#94A4C4;" d="M455.49,534.323c0.124-0.098,0.248-0.195,0.372-0.293
				C455.738,534.128,455.614,534.225,455.49,534.323z"/>
			<path style="opacity:0.8;fill:#94A4C4;" d="M331.851,512.702c0,0,1.119-1.592,2.478-3.294c1.367-0.104,2.832-0.403,4.367-0.864
				c-2.48,9.113,1.046,52.936,17.903,57.061c14.874,3.639,77.772-26.088,92.369-33.135c1.453,1.343,2.845,2.577,4.154,3.688
				c-23.367,17.775-56.792,33.382-107.283,41.641c-1.444,0.265-2.947,0.401-4.501,0.422l-13.97-30.549L331.851,512.702z"/>
			<path style="opacity:0.8;fill:#94A4C4;" d="M454.376,535.195c0.147-0.114,0.294-0.228,0.441-0.343
				C454.671,534.966,454.524,535.081,454.376,535.195z"/>
			<path style="opacity:0.8;fill:#94A4C4;" d="M453.298,536.025c0.151-0.115,0.3-0.23,0.45-0.345
				C453.598,535.795,453.448,535.91,453.298,536.025z"/>
		</g>
		<path style="fill:#DB6445;" d="M273.568,479.884c3.766-1.076,2.927,2.505,2.927,2.505c-0.581-0.127-0.97-0.132-1.134,0.005
			c-30.845,25.824-20.982,43.757-18.651,46.985c0,0-1.793,6.815-5.739-6.994C245.582,503.519,269.802,480.96,273.568,479.884z"/>
		<path style="fill:#DB6445;" d="M385.471,455.495c0,0,5.918,40.529,94.687,51.468c6.635,0.897,3.587,12.015-1.793,11.477
			c-5.38-0.538-76.575-8.07-97.198-51.468C378.657,460.337,378.298,453.881,385.471,455.495z"/>
		<path style="opacity:0.8;fill:#94A4C4;" d="M453.123,536.159c-12.959-11-34.016-33.888-42.725-58.606
			c-17.575-53.082,5.38-77.83,19.368-85.003s33.714,12.015,33.714,19.368c0,7.353-0.538,46.268,3.407,52.365
			c3.945,6.097,19.368,15.423,19.368,15.423s4.445,3.498,9.41,8.884C485.983,503.839,473.305,520.807,453.123,536.159z"/>
		<path style="fill:#A3412E;" d="M482.158,507.703c-2.692,3.374-5.596,6.764-8.753,10.14c-9.243-1.269-29.232-4.776-48.746-13.305
			c-3.72-5.361-7.167-11.063-10.04-16.959c13.697,8.074,34.365,15.543,65.539,19.385
			C480.964,507.072,481.625,507.332,482.158,507.703z"/>
		<path style="fill:#DB6445;" d="M522.122,382.507c0,0,5.918,2.869,1.255,7.711c-4.663,4.842-35.508,9.863-55.055,1.793
			c-10.677-4.408-20.802-19.009-27.438-21.161c-2.69-0.179,0.115-5.197,3.766-4.483s24.03,16.499,24.03,16.499l38.018,3.766
			L522.122,382.507z"/>
		<ellipse style="fill:#EEF3FF;" cx="492.734" cy="327.99" rx="60.995" ry="62.228"/>
		<ellipse style="fill:#97A9CC;" cx="498.653" cy="332.593" rx="53.104" ry="55.323"/>
		<ellipse style="fill:#1D2751;" cx="498.982" cy="333.744" rx="50.637" ry="54.172"/>
		<g style="opacity:0.5;">
			<defs>
				<ellipse id="SVGID_61_" style="opacity:0.5;" cx="498.982" cy="333.744" rx="50.637" ry="54.172"/>
			</defs>
			<clipPath id="SVGID_62_">
				<use xlink:href="#SVGID_61_"  style="overflow:visible;"/>
			</clipPath>
			<path style="clip-path:url(#SVGID_62_);fill:#11307F;" d="M559.648,320.18c0,0-1.644,34.69-29.922,27.785
				c-15.611-3.812-23.017-26.963-30.744-27.785c-7.727-0.822-15.454,12.002-29.758,7.727c-14.303-4.275-21.866-21.537-17.263-30.909
				c4.603-9.371,37.814-23.181,37.814-23.181l49.563,14.023L559.648,320.18z"/>
		</g>
		<path style="fill:#EEF3FF;" d="M486.256,479.705c0,0-15.423-9.325-19.368-15.423c-3.945-6.097-3.407-45.012-3.407-52.365
			c0-7.353-19.727-26.541-33.714-19.368s-30.486,27.617-12.912,80.699c12.195,34.611,55.593,62.228,60.076,62.049
			s32.1,4.483,32.1-21.52C508.134,496.92,486.256,479.705,486.256,479.705z"/>
		<path style="fill:#DB6445;" d="M336.919,509.011c0,0-18.697,36.688,8.92,69.147c-1.076,3.766-11.002,2.511-10.791,0
			c0.211-2.511-22.565-25.644-5.528-69.222C331.313,506.425,335.889,506.396,336.919,509.011z"/>
		<path style="fill:#DB6445;" d="M466.081,462.405c0,0-13.181,4.926-22.865,4.567s-24.81,0.802-25.855,7.664
			c-1.045,6.862,2.143,5.046,2.143,5.046s-4.802-6.792,23.712-8.586c11.119,0,25.106-4.663,25.106-4.663
			S469.757,463.038,466.081,462.405z"/>
		<path style="fill:#BC4839;" d="M548.989,437.333c0,0-6.579,24.83-30.711,30.373c-1.357,1.06,0.389,2.889,2.475,2.423
			c2.086-0.466,20.943-2.928,30.779-30.773C552.098,436.356,548.989,437.333,548.989,437.333z"/>
		
			<ellipse transform="matrix(0.8431 -0.5378 0.5378 0.8431 -85.1001 304.3332)" style="fill:#FFFFFF;" cx="478.924" cy="297.985" rx="7.659" ry="4.321"/>
		
			<ellipse transform="matrix(0.6418 -0.7669 0.7669 0.6418 -67.4205 469.0536)" style="fill:#FFFFFF;" cx="468.402" cy="306.699" rx="1.784" ry="1.006"/>
	</g>
</g>
</svg>
